<svg xmlns="http://www.w3.org/2000/svg" width="23.613" height="23.613" viewBox="0 0 23.613 23.613">
  <g id="Group_57961" data-name="Group 57961" transform="translate(-14.193 -12.194)">
    <g id="Group_57960" data-name="Group 57960" transform="translate(-0.821 -0.905)">
      <g id="fingerprint_icon" transform="translate(13.546 12.824)" fill="#317fe3">
        <path d="M 15.73786735534668 20.31326675415039 C 15.69493103027344 20.31326675415039 15.64907646179199 20.30416297912598 15.60141944885254 20.28621101379395 C 14.19707012176514 19.92916679382324 13.02450275421143 19.21381187438965 12.1163272857666 18.15995788574219 C 11.20259666442871 17.09966659545898 10.73929691314697 15.79556751251221 10.73929691314697 14.2838773727417 C 10.73929691314697 13.61040687561035 10.98941707611084 13.03642749786377 11.48269748687744 12.57788753509521 C 11.97287750244141 12.12224674224854 12.56682682037354 11.89121723175049 13.24805736541748 11.89121723175049 C 13.92928695678711 11.89121723175049 14.52323722839355 12.12224674224854 15.01341724395752 12.57787704467773 C 15.50670719146729 13.03642749786377 15.75682735443115 13.61040687561035 15.75682735443115 14.2838773727417 C 15.75682735443115 14.75497722625732 15.93477725982666 15.14116764068604 16.30085754394531 15.46451759338379 C 16.67241668701172 15.79269695281982 17.0916576385498 15.95223712921143 17.5825366973877 15.95223712921143 C 18.05885696411133 15.95223712921143 18.46428680419922 15.79326725006104 18.82199668884277 15.46622753143311 C 19.1757869720459 15.14276695251465 19.34777641296387 14.75601673126221 19.34777641296387 14.2838773727417 C 19.34777641296387 12.67890739440918 18.74365615844727 11.31593704223633 17.55219650268555 10.23282718658447 C 16.35663795471191 9.145977020263672 14.9085168838501 8.594897270202637 13.24805736541748 8.594897270202637 C 11.58759689331055 8.594897270202637 10.13947677612305 9.145977020263672 8.943917274475098 10.23282718658447 C 7.752457141876221 11.31593704223633 7.148336887359619 12.67890739440918 7.148336887359619 14.2838773727417 C 7.148336887359619 14.59859752655029 7.185137271881104 15.01631736755371 7.257727146148682 15.52545738220215 C 7.329816818237305 16.03123664855957 7.486637115478516 16.61577796936035 7.723826885223389 17.26286697387695 C 7.782347202301025 17.40934753417969 7.743436813354492 17.50546646118164 7.700217247009277 17.55960655212402 C 7.663806915283203 17.60519790649414 7.618496894836426 17.64626693725586 7.565516948699951 17.6816577911377 L 7.557736873626709 17.68685722351074 L 7.54936695098877 17.69104766845703 C 7.492647171020508 17.71946716308594 7.432356834411621 17.73386764526367 7.370187282562256 17.73386764526367 C 7.339907169342041 17.73386764526367 7.308967113494873 17.73039627075195 7.27821683883667 17.72354698181152 C 7.201547145843506 17.70647811889648 7.098067283630371 17.65582656860352 7.040477275848389 17.51151657104492 L 7.03905725479126 17.50797653198242 L 7.037827014923096 17.5043773651123 C 6.861647129058838 16.98826789855957 6.720767021179199 16.45453643798828 6.619117259979248 15.91801738739014 C 6.517046928405762 15.37928676605225 6.465297222137451 14.82947731018066 6.465297222137451 14.2838773727417 C 6.465297222137451 12.51126670837402 7.146007061004639 10.97553730010986 8.488516807556152 9.71934700012207 C 9.828217506408691 8.46580696105957 11.42954730987549 7.830207347869873 13.24805736541748 7.830207347869873 C 15.10636711120605 7.830207347869873 16.72444725036621 8.455417633056641 18.0573673248291 9.688457489013672 C 19.39361763000488 10.92458724975586 20.07114791870117 12.47070693969727 20.07114791870117 14.2838773727417 C 20.07114791870117 14.94350719451904 19.82468795776367 15.51043701171875 19.3386173248291 15.96891689300537 C 18.85501670837402 16.42504692077637 18.26418685913086 16.65632629394531 17.5825366973877 16.65632629394531 C 16.88833618164062 16.65632629394531 16.28447723388672 16.42554664611816 15.7877368927002 15.97039699554443 C 15.28722667694092 15.51179695129395 15.03345680236816 14.94437694549561 15.03345680236816 14.2838773727417 C 15.03345680236816 13.79814720153809 14.8614673614502 13.40478706359863 14.50766658782959 13.08131694793701 C 14.14996719360352 12.75427722930908 13.73794746398926 12.59530735015869 13.24805736541748 12.59530735015869 C 12.75766658782959 12.59530735015869 12.34203720092773 12.75456714630127 11.97740745544434 13.08218765258789 C 11.61746692657471 13.40559673309326 11.44249725341797 13.79866695404053 11.44249725341797 14.2838773727417 C 11.44249725341797 15.63980674743652 11.85678672790527 16.78533744812012 12.67384719848633 17.68866729736328 C 13.49794673919678 18.59976768493652 14.53987693786621 19.24802780151367 15.77069664001465 19.61544799804688 C 15.89637660980225 19.65734672546387 15.97419738769531 19.71502685546875 16.01320648193359 19.79323768615723 C 16.04920387268066 19.86540603637695 16.05668449401855 19.9465389251709 16.03545951843262 20.03446006774902 C 16.01366996765137 20.14012718200684 15.96533870697021 20.2186164855957 15.89175701141357 20.26777648925781 C 15.84658718109131 20.2979564666748 15.7948169708252 20.31326675415039 15.73786735534668 20.31326675415039 Z M 11.36204719543457 20.14852714538574 C 11.29924488067627 20.14852714538574 11.20668029785156 20.12608528137207 11.11955833435059 20.02029037475586 C 10.33495616912842 19.20601081848145 9.713681221008301 18.33835601806641 9.272876739501953 17.44124794006348 C 8.827906608581543 16.53566741943359 8.602287292480469 15.47336673736572 8.602287292480469 14.2838773727417 C 8.602287292480469 13.04744720458984 9.062606811523438 11.99090671539307 9.970446586608887 11.1436071395874 C 10.87534713745117 10.29904747009277 11.9780969619751 9.870817184448242 13.24805736541748 9.870817184448242 C 14.51758670806885 9.870817184448242 15.6268367767334 10.29878711700439 16.54499626159668 11.14283752441406 C 17.46675682067871 11.99019718170166 17.93413734436035 13.0469970703125 17.93413734436035 14.2838773727417 C 17.93413734436035 14.39209747314453 17.90242767333984 14.47873687744141 17.83989715576172 14.54137706756592 C 17.7773265838623 14.60409736633301 17.69072723388672 14.6359167098999 17.5825366973877 14.6359167098999 C 17.47955703735352 14.6359167098999 17.39294624328613 14.60719680786133 17.32510757446289 14.550537109375 C 17.27295684814453 14.50698757171631 17.21077728271484 14.42536735534668 17.21077728271484 14.2838773727417 C 17.21077728271484 13.24192714691162 16.81688690185547 12.35474681854248 16.0400562286377 11.64699745178223 C 15.25920677185059 10.93560695648193 14.31983661651611 10.57489681243896 13.24805736541748 10.57489681243896 C 12.17674732208252 10.57489681243896 11.24447727203369 10.93531703948975 10.47714710235596 11.64615726470947 C 9.713076591491699 12.35396671295166 9.325667381286621 13.24142742156982 9.325667381286621 14.2838773727417 C 9.325667381286621 15.40033721923828 9.520606994628906 16.3637580871582 9.905067443847656 17.14739799499512 C 10.29280662536621 17.93775749206543 10.87732696533203 18.74066734313965 11.64238739013672 19.53381729125977 C 11.72920703887939 19.62080764770508 11.76718711853027 19.71455764770508 11.75348663330078 19.8106575012207 C 11.74211692810059 19.89037704467773 11.70414733886719 19.96308708190918 11.64060688018799 20.02676773071289 C 11.5966272354126 20.07084655761719 11.53457736968994 20.10585784912109 11.45090675354004 20.13379669189453 C 11.42167663574219 20.14356803894043 11.39177703857422 20.14852714538574 11.36204719543457 20.14852714538574 Z M 17.40109634399414 18.59591674804688 C 16.1854076385498 18.59591674804688 15.11706733703613 18.18513679504395 14.22574710845947 17.37497711181641 C 13.33031749725342 16.56108665466309 12.87629699707031 15.52108764648438 12.87629699707031 14.2838773727417 C 12.87629699707031 14.18085670471191 12.90491676330566 14.09420680999756 12.96136665344238 14.02632713317871 C 13.0048770904541 13.97400760650635 13.0864372253418 13.9116268157959 13.22789669036865 13.9116268157959 C 13.36935710906982 13.9116268157959 13.45091724395752 13.97400760650635 13.4944372177124 14.02634716033936 C 13.55087661743164 14.09420680999756 13.57949733734131 14.18085670471191 13.57949733734131 14.2838773727417 C 13.57949733734131 15.32494735717773 13.9660472869873 16.19462776184082 14.72840690612793 16.86874771118164 C 15.49613666534424 17.54761695861816 16.39535713195801 17.89183807373047 17.40109634399414 17.89183807373047 C 17.5035572052002 17.89183807373047 17.62784767150879 17.88524627685547 17.77052688598633 17.87224769592285 C 17.91384696960449 17.85918998718262 18.07255935668945 17.83932876586914 18.2422981262207 17.81320381164551 C 18.26978302001953 17.80791664123535 18.29668235778809 17.80524635314941 18.32230758666992 17.80524635314941 C 18.39961624145508 17.80524635314941 18.46986770629883 17.82978630065918 18.52543640136719 17.87620735168457 C 18.58727645874023 17.92783737182617 18.62994766235352 17.988037109375 18.65224647521973 18.05510711669922 L 18.65406799316406 18.06056785583496 L 18.65545654296875 18.06614685058594 C 18.67772674560547 18.15541648864746 18.6705265045166 18.23774719238281 18.63405799865723 18.31083679199219 C 18.6056957244873 18.3676872253418 18.54279136657715 18.44114685058594 18.40399932861328 18.4705810546875 C 18.15396118164062 18.53988456726074 17.93034744262695 18.57861518859863 17.73930740356445 18.58571624755859 C 17.55419731140137 18.59257698059082 17.44357681274414 18.59591674804688 17.40109634399414 18.59591674804688 Z M 6.133677005767822 10.15734672546387 C 6.077436923980713 10.15734672546387 6.020166873931885 10.14293670654297 5.963447093963623 10.11451721191406 C 5.859567165374756 10.06245708465576 5.799996852874756 9.965717315673828 5.799996852874756 9.849077224731445 C 5.799996852874756 9.765287399291992 5.818877220153809 9.684977531433105 5.856097221374512 9.610377311706543 L 5.861496925354004 9.599556922912598 L 5.868546962738037 9.589747428894043 C 6.712387084960938 8.416727066040039 7.795856952667236 7.496907234191895 9.0888671875 6.855817317962646 C 10.38063716888428 6.215347290039062 11.77998733520508 5.890607357025146 13.24805736541748 5.890607357025146 C 14.71558666229248 5.890607357025146 16.11785697937012 6.208317279815674 17.41590690612793 6.834917068481445 C 18.71584701538086 7.462417125701904 19.80974769592285 8.37537670135498 20.66721725463867 9.548417091369629 L 20.67127799987793 9.553977012634277 L 20.6748161315918 9.559886932373047 C 20.73455619812012 9.659687042236328 20.75734710693359 9.745807647705078 20.74448776245117 9.823177337646484 C 20.73256683349609 9.894817352294922 20.69477653503418 9.962977409362793 20.63213729858398 10.02574729919434 C 20.56379699707031 10.09421730041504 20.47480773925781 10.13040733337402 20.37475776672363 10.13040733337402 C 20.30043792724609 10.13040733337402 20.1900463104248 10.1030969619751 20.08615684509277 9.972977638244629 L 20.08377647399902 9.969977378845215 L 20.0815372467041 9.966867446899414 C 19.30707740783691 8.888156890869141 18.30532646179199 8.047687530517578 17.10412788391113 7.468797206878662 C 15.90056705474854 6.888777256011963 14.60319709777832 6.594686985015869 13.24805736541748 6.594686985015869 C 11.89349746704102 6.594686985015869 10.60679721832275 6.891937255859375 9.423707008361816 7.478177070617676 C 8.241287231445312 8.064077377319336 7.242027282714844 8.901957511901855 6.453677177429199 9.968546867370605 L 6.452016830444336 9.970787048339844 L 6.450276851654053 9.972977638244629 C 6.37589693069458 10.06613731384277 6.301597118377686 10.12234687805176 6.223136901855469 10.14480686187744 C 6.19409704208374 10.15312671661377 6.163997173309326 10.15734672546387 6.133677005767822 10.15734672546387 Z M 8.431777000427246 5.769207000732422 C 8.383687019348145 5.769207000732422 8.34003734588623 5.757627010345459 8.302037239074707 5.734786987304688 C 8.252645492553711 5.705077171325684 8.208642959594727 5.662857055664062 8.171072006225586 5.609167098999023 C 8.122748374938965 5.554471492767334 8.09827709197998 5.482204437255859 8.09827709197998 5.394077301025391 C 8.09827709197998 5.290266990661621 8.143437385559082 5.202927112579346 8.225437164306641 5.148137092590332 L 8.231046676635742 5.144387245178223 L 8.236976623535156 5.141147136688232 C 9.010376930236816 4.719617366790771 9.832547187805176 4.395557403564453 10.6806468963623 4.177977085113525 C 11.52892684936523 3.960347175598145 12.39272689819336 3.849997282028198 13.24805736541748 3.849997282028198 C 14.13013744354248 3.849997282028198 15.00750732421875 3.960347175598145 15.85578727722168 4.177977085113525 C 16.70051193237305 4.394690036773682 17.51951599121094 4.703527450561523 18.29023933410645 5.095981121063232 C 18.44366455078125 5.160285472869873 18.47966003417969 5.273056507110596 18.48740768432617 5.335117340087891 C 18.49850654602051 5.424147129058838 18.47976684570312 5.50819730758667 18.43319702148438 5.578186988830566 C 18.39343643188477 5.637967109680176 18.33919715881348 5.687797069549561 18.27198791503906 5.726287364959717 C 18.22557640075684 5.752857208251953 18.17421722412109 5.766327381134033 18.11931610107422 5.766327381134033 C 18.07167625427246 5.766327381134033 18.02153778076172 5.75590705871582 17.97026634216309 5.735367298126221 L 17.96496772766113 5.733237266540527 L 17.95984649658203 5.730717182159424 C 17.23325729370117 5.373247146606445 16.46284675598145 5.087917327880859 15.6700267791748 4.882657051086426 C 14.87963676452637 4.678037166595459 14.0647668838501 4.574287414550781 13.24805736541748 4.574287414550781 C 12.43071746826172 4.574287414550781 11.62205696105957 4.671387195587158 10.84451675415039 4.862897396087646 C 10.06752681732178 5.054257392883301 9.312907218933105 5.345386981964111 8.601616859436035 5.728207111358643 L 8.594186782836914 5.732197284698486 L 8.586357116699219 5.735337257385254 C 8.52951717376709 5.758137226104736 8.478957176208496 5.769207000732422 8.431777000427246 5.769207000732422 Z" stroke="none"/>
        <path d="M 13.24805736541748 3.999996185302734 C 12.40131664276123 3.999996185302734 11.55794715881348 4.107755661010742 10.71792697906494 4.323266983032227 C 9.87791633605957 4.538776397705078 9.074857711791992 4.855306625366211 8.308767318725586 5.272855758666992 C 8.268447875976562 5.299797058105469 8.24827766418457 5.340206146240234 8.24827766418457 5.394075393676758 C 8.24827766418457 5.447956085205078 8.261726379394531 5.488367080688477 8.288606643676758 5.51530647277832 C 8.315486907958984 5.555715560913086 8.345727920532227 5.586015701293945 8.379327774047852 5.606225967407227 C 8.412927627563477 5.626428604125977 8.463327407836914 5.623058319091797 8.530527114868164 5.596126556396484 C 9.256296157836914 5.20550537109375 10.01567649841309 4.912546157836914 10.80864715576172 4.717247009277344 C 11.60162734985352 4.521936416625977 12.41476726531982 4.424285888671875 13.24805736541748 4.424285888671875 C 14.0813570022583 4.424285888671875 14.90120697021484 4.528676986694336 15.70762729644775 4.737445831298828 C 16.5140380859375 4.946226119995117 17.28685760498047 5.232446670532227 18.02606582641602 5.596126556396484 C 18.09326553344727 5.623054504394531 18.1503963470459 5.623054504394531 18.19743728637695 5.596126556396484 C 18.24447631835938 5.569187164306641 18.28143692016602 5.535505294799805 18.30831718444824 5.495105743408203 C 18.33519744873047 5.454696655273438 18.34527587890625 5.407546997070312 18.33855819702148 5.353675842285156 C 18.33183670043945 5.299797058105469 18.29487609863281 5.25938606262207 18.22767639160156 5.232446670532227 C 17.46157836914062 4.841836929321289 16.65852737426758 4.538776397705078 15.81850719451904 4.323266983032227 C 14.97848701477051 4.107755661010742 14.12167739868164 3.999996185302734 13.24805736541748 3.999996185302734 M 13.24805736541748 6.040605545043945 C 11.79650688171387 6.040605545043945 10.43232727050781 6.357135772705078 9.155506134033203 6.990205764770508 C 7.878677368164062 7.623266220092773 6.823617935180664 8.518976211547852 5.990316390991211 9.677346229553223 C 5.963436126708984 9.731216430664062 5.949996948242188 9.788466453552246 5.949996948242188 9.849076271057129 C 5.949996948242188 9.909686088562012 5.976877212524414 9.953466415405273 6.030637741088867 9.980405807495117 C 6.08439826965332 10.00734710693359 6.134807586669922 10.01407623291016 6.181846618652344 10.00060653686523 C 6.228887557983398 9.987135887145996 6.279287338256836 9.946736335754395 6.333047866821289 9.879385948181152 C 7.139457702636719 8.788366317749023 8.147476196289062 7.943155288696289 9.357107162475586 7.343776702880859 C 10.56672668457031 6.744386672973633 11.86370658874512 6.444686889648438 13.24805736541748 6.444686889648438 C 14.63239669799805 6.444686889648438 15.93946743011475 6.741016387939453 17.16924667358398 7.333675384521484 C 18.39902687072754 7.926326751708984 19.41040802001953 8.774896621704102 20.20338821411133 9.879385948181152 C 20.25714683532715 9.946725845336914 20.31427764892578 9.980405807495117 20.374755859375 9.980405807495117 C 20.43522644042969 9.980405807495117 20.48563766479492 9.960196495056152 20.52595710754395 9.919795989990234 C 20.56627655029297 9.879385948181152 20.58978652954102 9.83897590637207 20.59651756286621 9.798565864562988 C 20.60323715209961 9.758155822753906 20.5864372253418 9.704286575317383 20.54611587524414 9.636936187744141 C 19.69937705993652 8.47856616973877 18.63423728942871 7.58958625793457 17.3506965637207 6.969995498657227 C 16.06714630126953 6.350406646728516 14.69960689544678 6.040605545043945 13.24805736541748 6.040605545043945 M 13.24805736541748 7.980205535888672 C 11.4605073928833 7.980205535888672 9.908157348632812 8.596426010131836 8.591007232666016 9.828876495361328 C 7.273866653442383 11.0613260269165 6.615287780761719 12.54632663726807 6.615287780761719 14.28387641906738 C 6.615287780761719 14.82265663146973 6.66569709777832 15.35805606842041 6.766496658325195 15.89009666442871 C 6.86729621887207 16.4221363067627 7.005056381225586 16.94407653808594 7.179786682128906 17.45591735839844 C 7.206666946411133 17.52326583862305 7.250347137451172 17.56366729736328 7.310827255249023 17.5771369934082 C 7.371307373046875 17.59060478210449 7.428424835205078 17.58387565612793 7.482187271118164 17.55693626403809 C 7.522506713867188 17.52999687194824 7.556106567382812 17.49968719482422 7.582986831665039 17.46601676940918 C 7.609867095947266 17.43234634399414 7.609867095947266 17.3818359375 7.582986831665039 17.31448554992676 C 7.341066360473633 16.65448570251465 7.183147430419922 16.06520652770996 7.109226226806641 15.54662609100342 C 7.035297393798828 15.02805614471436 6.998336791992188 14.60714626312256 6.998336791992188 14.28387641906738 C 6.998336791992188 12.62713623046875 7.613227844238281 11.23979663848877 8.843017578125 10.12183666229248 C 10.07279777526855 9.003876686096191 11.54114723205566 8.444896697998047 13.24805736541748 8.444896697998047 C 14.9549674987793 8.444896697998047 16.42331695556641 9.003876686096191 17.65309715270996 10.12183666229248 C 18.88288688659668 11.23978614807129 19.49777603149414 12.62713623046875 19.49777603149414 14.28387641906738 C 19.49777603149414 14.79571628570557 19.3062572479248 15.22672653198242 18.9232063293457 15.57693576812744 C 18.54015731811523 15.92713642120361 18.0932674407959 16.10223579406738 17.5825366973877 16.10223579406738 C 17.0583667755127 16.10223579406738 16.59803771972656 15.92713642120361 16.20155715942383 15.57693576812744 C 15.80506706237793 15.22672653198242 15.6068172454834 14.79571628570557 15.6068172454834 14.28387641906738 C 15.6068172454834 13.65081596374512 15.37497711181641 13.11877632141113 14.91128730773926 12.68775653839111 C 14.44759750366211 12.25673580169678 13.89318752288818 12.04122638702393 13.24805736541748 12.04122638702393 C 12.60292720794678 12.04122638702393 12.04851722717285 12.25673580169678 11.5848274230957 12.68775653839111 C 11.12113666534424 13.11877632141113 10.88929748535156 13.65081596374512 10.88929748535156 14.28387641906738 C 10.88929748535156 15.76550579071045 11.33617687225342 17.0248966217041 12.22995662689209 18.06203651428223 C 13.12373733520508 19.09918594360352 14.26279735565186 19.79285621643066 15.6471471786499 20.14305686950684 C 15.71434593200684 20.16999435424805 15.76810646057129 20.16999626159668 15.80842685699463 20.14305686950684 C 15.84874725341797 20.11611557006836 15.8756275177002 20.06897735595703 15.88906669616699 20.00162506103516 C 15.90250682830811 19.94775581359863 15.89914703369141 19.90061569213867 15.87898731231689 19.86019515991211 C 15.85882663726807 19.81979560852051 15.80842685699463 19.7861156463623 15.72778701782227 19.75917625427246 C 14.46439743041992 19.38203620910645 13.40933704376221 18.72540664672852 12.56260681152344 17.78928565979004 C 11.7158670425415 16.85315704345703 11.29249668121338 15.68469619750977 11.29249668121338 14.28387641906738 C 11.29249668121338 13.75857639312744 11.48738670349121 13.32081604003906 11.87715721130371 12.97060585021973 C 12.26691722869873 12.62040615081787 12.72388744354248 12.44530582427979 13.24805736541748 12.44530582427979 C 13.77222728729248 12.44530582427979 14.22583675384521 12.62040615081787 14.60887718200684 12.97060585021973 C 14.99192714691162 13.32081604003906 15.18345737457275 13.75857639312744 15.18345737457275 14.28387641906738 C 15.18345737457275 14.90346622467041 15.41865730285645 15.42877578735352 15.88906669616699 15.85979652404785 C 16.35947799682617 16.29081726074219 16.9239673614502 16.50632667541504 17.5825366973877 16.50632667541504 C 18.22767639160156 16.50632667541504 18.77871704101562 16.29081726074219 19.23569679260254 15.85979652404785 C 19.69265747070312 15.42877578735352 19.92114639282227 14.90346622467041 19.92114639282227 14.28387641906738 C 19.92114639282227 12.50591659545898 19.26592636108398 11.01081657409668 17.95550727844238 9.798565864562988 C 16.64507675170898 8.586326599121094 15.07592678070068 7.980205535888672 13.24805736541748 7.980205535888672 M 13.24805736541748 10.0208158493042 C 12.01155662536621 10.0208158493042 10.95313739776611 10.43162631988525 10.07279777526855 11.25326633453369 C 9.19245719909668 12.07489585876465 8.752296447753906 13.08509635925293 8.752296447753906 14.28387641906738 C 8.752296447753906 15.45571613311768 8.970697402954102 16.48612594604492 9.407506942749023 17.37509536743164 C 9.844316482543945 18.26407623291016 10.45248794555664 19.11265563964844 11.23201751708984 19.92081642150879 C 11.28577709197998 19.98815536499023 11.34290885925293 20.0117359161377 11.40338706970215 19.99152565002441 C 11.4638671875 19.97132682800293 11.50754737854004 19.94775581359863 11.53442668914795 19.92081642150879 C 11.57474708557129 19.88040542602539 11.5982666015625 19.83663558959961 11.60498714447021 19.78948593139648 C 11.61170673370361 19.74234580993652 11.5881872177124 19.69183731079102 11.53442668914795 19.6379566192627 C 10.75489711761475 18.82979583740234 10.16687774658203 18.02162551879883 9.770397186279297 17.21346664428711 C 9.373907089233398 16.40530586242676 9.175666809082031 15.42877578735352 9.175666809082031 14.28387641906738 C 9.175666809082031 13.19285583496094 9.575506210327148 12.27693653106689 10.37520790100098 11.53611660003662 C 11.17489719390869 10.79530620574951 12.13251686096191 10.42489624023438 13.24805736541748 10.42489624023438 C 14.36359691619873 10.42489624023438 15.32793712615967 10.79530620574951 16.14107704162598 11.53611660003662 C 16.95420837402344 12.27693653106689 17.36077690124512 13.19285583496094 17.36077690124512 14.28387641906738 C 17.36077690124512 14.35122585296631 17.38093566894531 14.40173625946045 17.42125701904297 14.43540668487549 C 17.46157836914062 14.46907615661621 17.51533699035645 14.48591613769531 17.5825366973877 14.48591613769531 C 17.64973831176758 14.48591613769531 17.70013809204102 14.46907615661621 17.73373794555664 14.43540668487549 C 17.76734733581543 14.40173625946045 17.78413772583008 14.35122585296631 17.78413772583008 14.28387641906738 C 17.78413772583008 13.08509635925293 17.33725738525391 12.07489585876465 16.44347763061523 11.25326633453369 C 15.54969692230225 10.43163585662842 14.48455715179443 10.0208158493042 13.24805736541748 10.0208158493042 M 13.22789669036865 14.06162643432617 C 13.1606969833374 14.06162643432617 13.11029720306396 14.08183574676514 13.07669734954834 14.12224578857422 C 13.04309749603271 14.1626558303833 13.02629661560059 14.21652603149414 13.02629661560059 14.28387641906738 C 13.02629661560059 15.48264598846436 13.45973682403564 16.47601699829102 14.32663726806641 17.26397705078125 C 15.19353675842285 18.05193710327148 16.21835708618164 18.44591522216797 17.40109634399414 18.44591522216797 C 17.4414176940918 18.44591522216797 17.55229568481445 18.44254684448242 17.73373794555664 18.43581581115723 C 17.91518783569336 18.4290771484375 18.12686729431152 18.39203643798828 18.3687858581543 18.32468605041504 C 18.43599700927734 18.31122589111328 18.47967720031738 18.28428649902344 18.49983596801758 18.24387741088867 C 18.51999664306641 18.20346641540527 18.52335739135742 18.15632629394531 18.50991821289062 18.10244560241699 C 18.4964771270752 18.06203651428223 18.46959686279297 18.02499580383301 18.42927742004395 17.99132537841797 C 18.38895606994629 17.95764541625977 18.33519554138184 17.94754409790039 18.26798629760742 17.96101570129395 C 18.0932674407959 17.98795700073242 17.93198776245117 18.0081672668457 17.78413772583008 18.02162551879883 C 17.63629722595215 18.03509521484375 17.50861740112305 18.04183578491211 17.40109634399414 18.04183578491211 C 16.35275650024414 18.04183578491211 15.42873668670654 17.68825531005859 14.62904739379883 16.98111724853516 C 13.82934665679932 16.27397537231445 13.42949676513672 15.37489604949951 13.42949676513672 14.28387641906738 C 13.42949676513672 14.21652603149414 13.41269683837891 14.1626558303833 13.37909698486328 14.12224578857422 C 13.34549713134766 14.08183574676514 13.29509735107422 14.06162643432617 13.22789669036865 14.06162643432617 M 13.24805736541748 3.699996948242188 C 14.14270687103271 3.699996948242188 15.03260707855225 3.811925888061523 15.89305686950684 4.032676696777344 C 16.74676132202148 4.251693725585938 17.57463836669922 4.563694000244141 18.35382270812988 4.960031509399414 C 18.5139045715332 5.029197692871094 18.61652755737305 5.158378601074219 18.6362476348877 5.316545486450195 C 18.6518669128418 5.441726684570312 18.62484741210938 5.56092643737793 18.55810737609863 5.661256790161133 C 18.50529670715332 5.740625381469727 18.43411636352539 5.806295394897461 18.34652709960938 5.856456756591797 C 18.22006607055664 5.928827285766602 18.06775665283203 5.936002731323242 17.91450691223145 5.874616622924805 L 17.89362716674805 5.865316390991211 C 17.17618751525879 5.512336730957031 16.41540718078613 5.230587005615234 15.63243675231934 5.027866363525391 C 14.85431671142578 4.826425552368164 14.05209732055664 4.724287033081055 13.24805736541748 4.724287033081055 C 12.44279670715332 4.724287033081055 11.64619731903076 4.819925308227539 10.88039684295654 5.008535385131836 C 10.11562728881836 5.196895599365234 9.372846603393555 5.483467102050781 8.672706604003906 5.860296249389648 L 8.642127990722656 5.874595642089844 C 8.567226409912109 5.90461540222168 8.49842643737793 5.919206619262695 8.431777954101562 5.919206619262695 C 8.35711669921875 5.919206619262695 8.285516738891602 5.899875640869141 8.224716186523438 5.863315582275391 C 8.159147262573242 5.823875427246094 8.101316452026367 5.769453048706055 8.052526473999023 5.701318740844727 C 8.000574111938477 5.639537811279297 7.948276519775391 5.540876388549805 7.948276519775391 5.394075393676758 C 7.948276519775391 5.240816116333008 8.018926620483398 5.105716705322266 8.142097473144531 5.023416519165039 L 8.165197372436523 5.00944709777832 C 8.94947624206543 4.581975936889648 9.783256530761719 4.253345489501953 10.64337730407715 4.032676696777344 C 11.50382709503174 3.811925888061523 12.38016700744629 3.699996948242188 13.24805736541748 3.699996948242188 Z M 13.24805736541748 5.740606307983398 C 14.73834705352783 5.740606307983398 16.16254806518555 6.063335418701172 17.48111724853516 6.699825286865234 C 18.803466796875 7.338146209716797 19.91616821289062 8.266776084899902 20.78830718994141 9.459896087646484 L 20.80351638793945 9.48283576965332 C 20.8823070526123 9.614456176757812 20.91140747070312 9.733826637268066 20.8924560546875 9.847776412963867 C 20.87527656555176 9.950905799865723 20.82342720031738 10.04639625549316 20.73832702636719 10.13169574737549 C 20.64121627807617 10.22898578643799 20.51550674438477 10.28040599822998 20.374755859375 10.28040599822998 C 20.26750755310059 10.28040599822998 20.11003684997559 10.24330615997314 19.96893692016602 10.06655597686768 L 19.95968627929688 10.05434608459473 C 19.20000648498535 8.99622631072998 18.21734619140625 8.171786308288574 17.03900718688965 7.603925704956055 C 15.85592746734619 7.033775329589844 14.58046722412109 6.744686126708984 13.24805736541748 6.744686126708984 C 11.91679668426514 6.744686126708984 10.65250682830811 7.036685943603516 9.490306854248047 7.612586975097656 C 8.329437255859375 8.187806129455566 7.348356246948242 9.010456085205078 6.574296951293945 10.05770587921143 L 6.567506790161133 10.06653594970703 C 6.473037719726562 10.18489646911621 6.373897552490234 10.25766658782959 6.264436721801758 10.2890157699585 C 6.145408630371094 10.32308769226074 6.017166137695312 10.30921268463135 5.896236419677734 10.24861621856689 C 5.742046356201172 10.17134666442871 5.649997711181641 10.02198600769043 5.649997711181641 9.849076271057129 C 5.649997711181641 9.741836547851562 5.674177169799805 9.638996124267578 5.72187614440918 9.54340648651123 L 5.732667922973633 9.52177619934082 L 5.746786117553711 9.502156257629395 C 6.605056762695312 8.309065818786621 7.707086563110352 7.373497009277344 9.022247314453125 6.721426010131836 C 10.33487701416016 6.070606231689453 11.75664710998535 5.740606307983398 13.24805736541748 5.740606307983398 Z M 13.24805736541748 7.680206298828125 C 15.14533710479736 7.680206298828125 16.79769706726074 8.318836212158203 18.15922737121582 9.578346252441406 C 19.52741622924805 10.84403610229492 20.22114753723145 12.42720603942871 20.22114753723145 14.28387641906738 C 20.22114753723145 14.98644638061523 19.95884704589844 15.59009647369385 19.44154739379883 16.07803726196289 C 18.92917633056641 16.5612964630127 18.3037166595459 16.80632591247559 17.5825366973877 16.80632591247559 C 16.84963607788086 16.80632591247559 16.2116870880127 16.56228637695312 15.68639659881592 16.08098602294922 C 15.15360736846924 15.59280586242676 14.88345718383789 14.9881763458252 14.88345718383789 14.28387641906738 C 14.88345718383789 13.84262657165527 14.72742748260498 13.48547649383545 14.4064474105835 13.1920166015625 C 14.07766723632812 12.89142608642578 13.69875717163086 12.74530601501465 13.24805736541748 12.74530601501465 C 12.79635715484619 12.74530601501465 12.41351699829102 12.89199638366699 12.07765674591064 13.19375610351562 C 11.75119686126709 13.48709583282471 11.59249687194824 13.84367656707764 11.59249687194824 14.28387641906738 C 11.59249687194824 15.60146617889404 11.99374675750732 16.7131462097168 12.78509712219238 17.58804702758789 C 13.59052658081055 18.47849655151367 14.60945701599121 19.11225509643555 15.81359672546387 19.47170639038086 L 15.82284736633301 19.47463607788086 C 15.98132705688477 19.5275764465332 16.09052658081055 19.61223602294922 16.14741706848145 19.72624588012695 C 16.19855499267578 19.82877731323242 16.21041488647461 19.94648742675781 16.18187141418457 20.0671501159668 C 16.14413070678711 20.24689865112305 16.04885101318359 20.34321403503418 15.97509670257568 20.39249610900879 C 15.85867404937744 20.47028541564941 15.70937824249268 20.4847583770752 15.55683898925781 20.42964172363281 C 14.12547779083252 20.0642204284668 12.92970180511475 19.33357810974121 12.0026969909668 18.25787734985352 C 11.06483745574951 17.16958618164062 10.5892972946167 15.8325366973877 10.5892972946167 14.28387641906738 C 10.5892972946167 13.56702613830566 10.8555269241333 12.95608615875244 11.38057708740234 12.46802616119385 C 11.8993968963623 11.98575592041016 12.52770709991455 11.74122619628906 13.24805736541748 11.74122619628906 C 13.96840667724609 11.74122619628906 14.59671688079834 11.98575592041016 15.1155366897583 12.46802616119385 C 15.64058685302734 12.95608615875244 15.90681743621826 13.56702613830566 15.90681743621826 14.28387641906738 C 15.90681743621826 14.70945644378662 16.06818771362305 15.05886650085449 16.4001579284668 15.35208606719971 C 16.74309730529785 15.65499591827393 17.12985610961914 15.80223655700684 17.5825366973877 15.80223655700684 C 18.01966667175293 15.80223655700684 18.39199829101562 15.6561164855957 18.72077751159668 15.35552597045898 C 19.041748046875 15.06207656860352 19.19777679443359 14.7115364074707 19.19777679443359 14.28387641906738 C 19.19777679443359 12.70094585418701 18.62649726867676 11.41214656829834 17.45129776000977 10.34382629394531 C 16.28420639038086 9.282855987548828 14.87003707885742 8.744895935058594 13.24805736541748 8.744895935058594 C 11.62607669830322 8.744895935058594 10.21190643310547 9.282855987548828 9.044816970825195 10.34381580352783 C 7.869617462158203 11.4121561050415 7.298337936401367 12.70095634460449 7.298337936401367 14.28387641906738 C 7.298337936401367 14.59153652191162 7.334636688232422 15.00213623046875 7.406227111816406 15.50428581237793 C 7.476707458496094 15.99878883361816 7.630516052246094 16.57190132141113 7.863378524780273 17.20774459838867 C 7.951919555664062 17.43412208557129 7.872783660888672 17.5838623046875 7.817436218261719 17.6531867980957 C 7.771396636962891 17.71085739135742 7.714677810668945 17.76239585876465 7.648857116699219 17.80637741088867 L 7.616617202758789 17.82512664794922 C 7.501502990722656 17.88283157348633 7.373409271240234 17.89841079711914 7.245637893676758 17.86996650695801 C 7.087366104125977 17.834716796875 6.965036392211914 17.72716522216797 6.901157379150391 17.56711578369141 L 6.895877838134766 17.55283737182617 C 6.7174072265625 17.03003692626953 6.57470703125 16.48939514160156 6.471736907958984 15.94593620300293 C 6.367927551269531 15.39798641204834 6.315286636352539 14.83878612518311 6.315286636352539 14.28387641906738 C 6.315286636352539 12.46809577941895 7.011987686157227 10.89551639556885 8.386037826538086 9.609816551208496 C 9.754426956176758 8.329425811767578 11.3902473449707 7.680206298828125 13.24805736541748 7.680206298828125 Z M 13.24805736541748 9.720816612243652 C 14.55636692047119 9.720816612243652 15.6997766494751 10.16209602355957 16.64650726318359 11.03240585327148 C 17.6004467010498 11.90934658050537 18.08413696289062 13.0032958984375 18.08413696289062 14.28387641906738 C 18.08413696289062 14.46996593475342 18.00904846191406 14.58424663543701 17.9460563659668 14.64734649658203 C 17.88299751281738 14.71054649353027 17.76869583129883 14.78591632843018 17.5825366973877 14.78591632843018 C 17.40931701660156 14.78591632843018 17.29465675354004 14.72052669525146 17.22896575927734 14.66567611694336 C 17.12050628662109 14.57510662078857 17.06077575683594 14.43951606750488 17.06077575683594 14.28387641906738 C 17.06077575683594 13.27183628082275 16.69384765625 12.44557666778564 15.93903732299805 11.7578763961792 C 15.17607688903809 11.06278610229492 14.29584693908691 10.72489643096924 13.24805736541748 10.72489643096924 C 12.20122718811035 10.72489643096924 11.32819747924805 11.06223583221436 10.57908725738525 11.75619602203369 C 9.836597442626953 12.444016456604 9.475667953491211 13.27082633972168 9.475667953491211 14.28387641906738 C 9.475667953491211 15.37723636627197 9.665447235107422 16.31842613220215 10.03972625732422 17.08132553100586 C 10.4202709197998 17.85700225830078 10.99518394470215 18.64644622802734 11.74844360351562 19.42771148681641 C 11.90095520019531 19.58154487609863 11.91617584228516 19.7323055267334 11.90198707580566 19.83182525634766 C 11.88617706298828 19.94275665283203 11.83250713348389 20.04680633544922 11.74679660797119 20.13271713256836 C 11.68596744537354 20.19367599487305 11.60472679138184 20.24057579040527 11.49842739105225 20.27607727050781 C 11.45377731323242 20.29097557067871 11.40790748596191 20.29852676391602 11.36204719543457 20.29852676391602 C 11.26775360107422 20.29852676391602 11.13084316253662 20.26720809936523 11.00769138336182 20.12036323547363 C 10.21416473388672 19.29608917236328 9.585189819335938 18.41698455810547 9.13825798034668 17.50739669799805 C 8.683086395263672 16.5810661315918 8.452297210693359 15.49651622772217 8.452297210693359 14.28387641906738 C 8.452297210693359 13.00418663024902 8.928647994995117 11.91075611114502 9.868106842041016 11.03394603729248 C 10.80168724060059 10.16261577606201 11.93886661529541 9.720816612243652 13.24805736541748 9.720816612243652 Z M 13.22789669036865 13.76162624359131 C 13.38363742828369 13.76162624359131 13.51925659179688 13.82157611846924 13.60977745056152 13.93044662475586 C 13.66438674926758 13.99612617492676 13.72949695587158 14.11076641082764 13.72949695587158 14.28387641906738 C 13.72949695587158 15.29412651062012 14.08874702453613 16.10288619995117 14.82777690887451 16.75637626647949 C 15.57767677307129 17.41948699951172 16.41941833496094 17.74183654785156 17.40109634399414 17.74183654785156 C 17.49902725219727 17.74183654785156 17.61874771118164 17.7354564666748 17.75691604614258 17.72286605834961 C 17.89633750915527 17.71017074584961 18.05110740661621 17.69081497192383 18.21699905395508 17.66532707214355 C 18.37092399597168 17.63650894165039 18.51364707946777 17.67089462280273 18.62161636352539 17.7610969543457 C 18.70513725280762 17.83084678649902 18.76334762573242 17.91384506225586 18.79458618164062 18.00776672363281 L 18.80099678039551 18.02983665466309 C 18.83171653747559 18.15299606323242 18.82040786743164 18.2733268737793 18.76828765869141 18.3777961730957 C 18.72547721862793 18.4636116027832 18.63385009765625 18.57373237609863 18.4399356842041 18.61627769470215 C 18.18029403686523 18.6879825592041 17.94650268554688 18.72811508178711 17.74487686157227 18.7356071472168 C 17.49580764770508 18.74484634399414 17.42938613891602 18.74591636657715 17.40109634399414 18.74591636657715 C 16.14693832397461 18.74591636657715 15.04464721679688 18.32200622558594 14.12485694885254 17.48597717285156 C 13.19683742523193 16.64246559143066 12.72629737854004 15.56512641906738 12.72629737854004 14.28387641906738 C 12.72629737854004 14.11076641082764 12.79140663146973 13.99612617492676 12.8460168838501 13.93044662475586 C 12.93653678894043 13.82157611846924 13.07215690612793 13.76162624359131 13.22789669036865 13.76162624359131 Z" stroke="none" fill="#317fe3"/>
      </g>
    </g>
    <path id="Path_155669" data-name="Path 155669" d="M25.613,7.9H23.252V4.361H19.71V2h5.9Zm0,17.71v-5.9H23.252v3.542H19.71v2.361ZM2,25.613H7.9V23.252H4.361V19.71H2ZM2,2V7.9H4.361V4.361H7.9V2Z" transform="translate(12.193 10.194)" fill="#154b91"/>
  </g>
</svg>
