<svg xmlns="http://www.w3.org/2000/svg" xmlns:xlink="http://www.w3.org/1999/xlink" width="268.536" height="268.696" viewBox="0 0 268.536 268.696">
  <defs>
    <clipPath id="clip-path">
      <rect id="Rectangle_7115" data-name="Rectangle 7115" width="268.536" height="268.696" fill="none"/>
    </clipPath>
  </defs>
  <g id="Group_57990" data-name="Group 57990" transform="translate(268.536 268.696) rotate(180)">
    <g id="Group_57988" data-name="Group 57988" clip-path="url(#clip-path)">
      <path id="Path_155796" data-name="Path 155796" d="M34.373,26.979a5.285,5.285,0,1,1-7.493-.048,5.282,5.282,0,0,1,7.493.048" transform="translate(21.858 21.926)" fill="#e26826"/>
      <path id="Path_155797" data-name="Path 155797" d="M47.076,26.919a5.236,5.236,0,1,1-7.424.073,5.294,5.294,0,0,1,7.424-.073" transform="translate(32.971 21.961)" fill="#e26826"/>
      <path id="Path_155798" data-name="Path 155798" d="M34.3,21.484a5.236,5.236,0,1,1-.088-7.424,5.3,5.3,0,0,1,.088,7.424" transform="translate(21.893 10.882)" fill="#e26826"/>
      <path id="Path_155799" data-name="Path 155799" d="M34.165,39.819a5.132,5.132,0,1,1-7.277.026,5.085,5.085,0,0,1,7.277-.026" transform="translate(21.919 33.069)" fill="#e26826"/>
      <path id="Path_155800" data-name="Path 155800" d="M39.772,14.14a5.118,5.118,0,1,1-.084,7.2,5.065,5.065,0,0,1,.084-7.2" transform="translate(33.006 10.915)" fill="#e26826"/>
      <path id="Path_155801" data-name="Path 155801" d="M46.959,39.859a5.078,5.078,0,1,1-7.2-.045,5.076,5.076,0,0,1,7.2.045" transform="translate(33.034 33.103)" fill="#e26826"/>
      <path id="Path_155802" data-name="Path 155802" d="M21.293,27.026a5.078,5.078,0,1,1-7.2-.043,5.078,5.078,0,0,1,7.2.043" transform="translate(10.875 22.023)" fill="#e26826"/>
      <path id="Path_155803" data-name="Path 155803" d="M21.111,39.9a4.919,4.919,0,1,1-6.921-.086,4.877,4.877,0,0,1,6.921.086" transform="translate(10.94 33.167)" fill="#e26826"/>
      <path id="Path_155804" data-name="Path 155804" d="M59.6,27.081a4.9,4.9,0,1,1-6.917-.089,4.855,4.855,0,0,1,6.917.089" transform="translate(44.184 22.094)" fill="#e26826"/>
      <path id="Path_155805" data-name="Path 155805" d="M20.978,14.18a4.863,4.863,0,1,1-6.839.034,4.857,4.857,0,0,1,6.839-.034" transform="translate(10.974 11.043)" fill="#e26826"/>
      <path id="Path_155806" data-name="Path 155806" d="M59.435,14.22a4.807,4.807,0,1,1-6.76-.041,4.862,4.862,0,0,1,6.76.041" transform="translate(44.249 11.079)" fill="#e26826"/>
      <path id="Path_155807" data-name="Path 155807" d="M59.435,39.885a4.807,4.807,0,1,1-6.76-.041,4.862,4.862,0,0,1,6.76.041" transform="translate(44.249 33.239)" fill="#e26826"/>
      <path id="Path_155808" data-name="Path 155808" d="M33.77,52.717a4.807,4.807,0,1,1-6.76-.043,4.862,4.862,0,0,1,6.76.043" transform="translate(22.091 44.318)" fill="#e26826"/>
      <path id="Path_155809" data-name="Path 155809" d="M46.62,8.165a4.86,4.86,0,0,1-6.835,0,4.86,4.86,0,0,1,0-6.76,4.86,4.86,0,0,1,6.835,0,4.863,4.863,0,0,1,0,6.76" transform="translate(33.169 0)" fill="#e26826"/>
      <path id="Path_155810" data-name="Path 155810" d="M46.492,59.4a4.7,4.7,0,1,1,.02-6.623,4.644,4.644,0,0,1-.02,6.623" transform="translate(33.201 44.349)" fill="#e26826"/>
      <path id="Path_155811" data-name="Path 155811" d="M33.723,1.5a4.647,4.647,0,0,1-.108,6.623,4.647,4.647,0,0,1-6.7-.147A4.647,4.647,0,0,1,27.1,1.352a4.648,4.648,0,0,1,6.623.145" transform="translate(22.121 0.031)" fill="#e26826"/>
      <path id="Path_155812" data-name="Path 155812" d="M1.379,39.9a4.644,4.644,0,1,1-.071,6.548A4.659,4.659,0,0,1,1.379,39.9" transform="translate(0 33.307)" fill="#e26826"/>
      <path id="Path_155813" data-name="Path 155813" d="M14.218,52.729a4.643,4.643,0,1,1-.084,6.548,4.661,4.661,0,0,1,.084-6.548" transform="translate(11.079 44.386)" fill="#e26826"/>
      <path id="Path_155814" data-name="Path 155814" d="M52.7,1.443a4.613,4.613,0,0,1,6.468,0,4.613,4.613,0,0,1-.006,6.468,4.609,4.609,0,0,1-6.466,0,4.611,4.611,0,0,1,0-6.468" transform="translate(44.354 0.105)" fill="#e26826"/>
      <path id="Path_155815" data-name="Path 155815" d="M1.387,27.09a4.613,4.613,0,0,1,6.468.041A4.613,4.613,0,0,1,7.814,33.6a4.613,4.613,0,0,1-6.468-.041,4.613,4.613,0,0,1,.041-6.468" transform="translate(0.037 22.264)" fill="#e26826"/>
      <path id="Path_155816" data-name="Path 155816" d="M59.067,59.119a4.466,4.466,0,1,1-.047-6.336,4.425,4.425,0,0,1,.047,6.336" transform="translate(44.387 44.457)" fill="#e26826"/>
      <path id="Path_155817" data-name="Path 155817" d="M71.868,27.134a4.467,4.467,0,1,1-6.336.054,4.425,4.425,0,0,1,6.336-.054" transform="translate(55.468 22.298)" fill="#e26826"/>
      <path id="Path_155818" data-name="Path 155818" d="M71.838,14.344a4.415,4.415,0,1,1-6.261-.037,4.458,4.458,0,0,1,6.261.037" transform="translate(55.507 11.259)" fill="#e26826"/>
      <path id="Path_155819" data-name="Path 155819" d="M71.8,39.97a4.414,4.414,0,1,1-6.261.041A4.451,4.451,0,0,1,71.8,39.97" transform="translate(55.508 33.418)" fill="#e26826"/>
      <path id="Path_155820" data-name="Path 155820" d="M7.675,52.842A4.458,4.458,0,0,1,7.6,59.1a4.456,4.456,0,0,1-6.261-.112A4.454,4.454,0,0,1,1.414,52.8a4.452,4.452,0,0,1,6.261.037" transform="translate(0.11 44.497)" fill="#e26826"/>
      <path id="Path_155821" data-name="Path 155821" d="M33.312,71.888a4.414,4.414,0,1,1-.019-6.261,4.452,4.452,0,0,1,.019,6.261" transform="translate(22.27 55.577)" fill="#e26826"/>
      <path id="Path_155822" data-name="Path 155822" d="M39.959,65.664a4.31,4.31,0,1,1-.058,6.075,4.281,4.281,0,0,1,.058-6.075" transform="translate(33.385 55.613)" fill="#e26826"/>
      <path id="Path_155823" data-name="Path 155823" d="M71.607,1.538a4.234,4.234,0,1,1-5.968-.019,4.225,4.225,0,0,1,5.968.019" transform="translate(55.582 0.254)" fill="#e26826"/>
      <path id="Path_155824" data-name="Path 155824" d="M20.3,65.722a4.233,4.233,0,1,1-5.968-.063,4.222,4.222,0,0,1,5.968.063" transform="translate(11.264 55.651)" fill="#e26826"/>
      <path id="Path_155825" data-name="Path 155825" d="M71.61,58.82a4.224,4.224,0,1,1-.037-5.974,4.237,4.237,0,0,1,.037,5.974" transform="translate(55.59 44.58)" fill="#e26826"/>
      <path id="Path_155826" data-name="Path 155826" d="M58.716,65.734a4.168,4.168,0,1,1-5.894-.062,4.221,4.221,0,0,1,5.894.062" transform="translate(44.545 55.693)" fill="#e26826"/>
      <path id="Path_155827" data-name="Path 155827" d="M84.2,27.228a4.048,4.048,0,1,1-5.687.015,4,4,0,0,1,5.687-.015" transform="translate(66.741 22.492)" fill="#e26826"/>
      <path id="Path_155828" data-name="Path 155828" d="M1.534,65.73a4,4,0,0,1,5.687.024,4,4,0,0,1-.061,5.762,4,4,0,0,1-5.687-.1,4,4,0,0,1,.061-5.687" transform="translate(0.272 55.738)" fill="#e26826"/>
      <path id="Path_155829" data-name="Path 155829" d="M78.521,40.066a3.99,3.99,0,1,1-.058,5.622,4.029,4.029,0,0,1,.058-5.622" transform="translate(66.784 33.615)" fill="#e26826"/>
      <path id="Path_155830" data-name="Path 155830" d="M84.158,14.436a3.989,3.989,0,1,1-5.622-.048,4.029,4.029,0,0,1,5.622.048" transform="translate(66.784 11.456)" fill="#e26826"/>
      <path id="Path_155831" data-name="Path 155831" d="M71.219,65.826a3.871,3.871,0,1,1-5.491-.048,3.837,3.837,0,0,1,5.491.048" transform="translate(55.746 55.814)" fill="#e26826"/>
      <path id="Path_155832" data-name="Path 155832" d="M27.223,78.616a3.871,3.871,0,1,1,0,5.491,3.835,3.835,0,0,1,0-5.491" transform="translate(22.507 66.893)" fill="#e26826"/>
      <path id="Path_155833" data-name="Path 155833" d="M45.526,78.629a3.87,3.87,0,1,1-5.491.009,3.835,3.835,0,0,1,5.491-.009" transform="translate(33.587 66.894)" fill="#e26826"/>
      <path id="Path_155834" data-name="Path 155834" d="M84.046,1.689A3.805,3.805,0,0,1,83.985,7.1,3.805,3.805,0,0,1,78.5,7.031a3.807,3.807,0,0,1,.14-5.48,3.8,3.8,0,0,1,5.406.138" transform="translate(66.832 0.424)" fill="#e26826"/>
      <path id="Path_155835" data-name="Path 155835" d="M19.788,83.977a3.8,3.8,0,1,1-.015-5.333,3.808,3.808,0,0,1,.015,5.333" transform="translate(11.471 66.937)" fill="#e26826"/>
      <path id="Path_155836" data-name="Path 155836" d="M83.883,58.344a3.787,3.787,0,1,1,.063-5.337,3.825,3.825,0,0,1-.063,5.337" transform="translate(66.878 44.788)" fill="#e26826"/>
      <path id="Path_155837" data-name="Path 155837" d="M58.218,78.606a3.787,3.787,0,1,1-5.337.03,3.825,3.825,0,0,1,5.337-.03" transform="translate(44.718 66.946)" fill="#e26826"/>
      <path id="Path_155838" data-name="Path 155838" d="M6.711,83.758a3.6,3.6,0,1,1-.045-5.1,3.593,3.593,0,0,1,.045,5.1" transform="translate(0.482 67.027)" fill="#e26826"/>
      <path id="Path_155839" data-name="Path 155839" d="M91.4,27.389a3.586,3.586,0,1,1,.032,5.033,3.6,3.6,0,0,1-.032-5.033" transform="translate(78.047 22.718)" fill="#e26826"/>
      <path id="Path_155840" data-name="Path 155840" d="M91.428,14.565a3.507,3.507,0,1,1,.034,4.942,3.539,3.539,0,0,1-.034-4.942" transform="translate(78.085 11.677)" fill="#e26826"/>
      <path id="Path_155841" data-name="Path 155841" d="M70.707,78.712a3.47,3.47,0,1,1-4.925.037,3.444,3.444,0,0,1,4.925-.037" transform="translate(55.932 67.081)" fill="#e26826"/>
      <path id="Path_155842" data-name="Path 155842" d="M91.447,40.251a3.47,3.47,0,1,1,.073,4.925,3.443,3.443,0,0,1-.073-4.925" transform="translate(78.091 33.842)" fill="#e26826"/>
      <path id="Path_155843" data-name="Path 155843" d="M78.625,65.906a3.47,3.47,0,1,1,.054,4.925,3.441,3.441,0,0,1-.054-4.925" transform="translate(67.012 56.002)" fill="#e26826"/>
      <path id="Path_155844" data-name="Path 155844" d="M91.494,6.526a3.379,3.379,0,1,1,4.759.006,3.39,3.39,0,0,1-4.759-.006" transform="translate(78.141 0.653)" fill="#e26826"/>
      <path id="Path_155845" data-name="Path 155845" d="M40.154,91.572a3.379,3.379,0,1,1-.009,4.759,3.39,3.39,0,0,1,.009-4.759" transform="translate(33.823 78.21)" fill="#e26826"/>
      <path id="Path_155846" data-name="Path 155846" d="M32.124,96.363a3.39,3.39,0,1,1,.034-4.759,3.379,3.379,0,0,1-.034,4.759" transform="translate(22.735 78.201)" fill="#e26826"/>
      <path id="Path_155847" data-name="Path 155847" d="M19.17,91.581a3.3,3.3,0,1,1-4.662.007,3.329,3.329,0,0,1,4.662-.007" transform="translate(11.707 78.252)" fill="#e26826"/>
      <path id="Path_155848" data-name="Path 155848" d="M96.185,57.731a3.3,3.3,0,1,1-.037-4.662,3.327,3.327,0,0,1,.037,4.662" transform="translate(78.183 45.014)" fill="#e26826"/>
      <path id="Path_155849" data-name="Path 155849" d="M57.534,96.11a3.174,3.174,0,1,1,.037-4.452,3.168,3.168,0,0,1-.037,4.452" transform="translate(44.994 78.301)" fill="#e26826"/>
      <path id="Path_155850" data-name="Path 155850" d="M83.286,78.9a3.164,3.164,0,1,1-4.468-.218,3.188,3.188,0,0,1,4.468.218" transform="translate(67.164 67.233)" fill="#e26826"/>
      <path id="Path_155851" data-name="Path 155851" d="M6.167,91.6a3.162,3.162,0,1,1-4.433,4.511A3.162,3.162,0,0,1,6.167,91.6" transform="translate(0.687 78.312)" fill="#e26826"/>
      <path id="Path_155852" data-name="Path 155852" d="M91.569,66.017a3.025,3.025,0,1,1,.015,4.26,2.98,2.98,0,0,1-.015-4.26" transform="translate(78.294 56.204)" fill="#e26826"/>
      <path id="Path_155853" data-name="Path 155853" d="M104.406,27.528a2.949,2.949,0,1,1,.035,4.17,2.966,2.966,0,0,1-.035-4.17" transform="translate(89.42 23.013)" fill="#e26826"/>
      <path id="Path_155854" data-name="Path 155854" d="M70.108,91.7a2.936,2.936,0,1,1-4.17-.041,2.978,2.978,0,0,1,4.17.041" transform="translate(56.192 78.421)" fill="#e26826"/>
      <path id="Path_155855" data-name="Path 155855" d="M104.43,14.672a2.935,2.935,0,1,1,.006,4.17,2.973,2.973,0,0,1-.006-4.17" transform="translate(89.431 11.943)" fill="#e26826"/>
      <path id="Path_155856" data-name="Path 155856" d="M104.434,40.331a2.936,2.936,0,1,1,0,4.17,2.975,2.975,0,0,1,0-4.17" transform="translate(89.431 34.103)" fill="#e26826"/>
      <path id="Path_155857" data-name="Path 155857" d="M108.435,1.925a2.735,2.735,0,0,1-.073,3.949,2.739,2.739,0,0,1-3.949-.106,2.738,2.738,0,0,1,.073-3.878,2.736,2.736,0,0,1,3.949.035" transform="translate(89.487 0.92)" fill="#e26826"/>
      <path id="Path_155858" data-name="Path 155858" d="M27.509,104.533a2.78,2.78,0,1,1-.03,3.949,2.736,2.736,0,0,1,.03-3.949" transform="translate(23.01 89.556)" fill="#e26826"/>
      <path id="Path_155859" data-name="Path 155859" d="M44.131,108.389a2.7,2.7,0,1,1,.037-3.8,2.746,2.746,0,0,1-.037,3.8" transform="translate(34.144 89.609)" fill="#e26826"/>
      <path id="Path_155860" data-name="Path 155860" d="M108.324,53.253a2.7,2.7,0,1,1-3.8-.065,2.746,2.746,0,0,1,3.8.065" transform="translate(89.54 45.291)" fill="#e26826"/>
      <path id="Path_155861" data-name="Path 155861" d="M18.464,104.581a2.679,2.679,0,1,1-3.807-.015,2.725,2.725,0,0,1,3.807.015" transform="translate(11.995 89.62)" fill="#e26826"/>
      <path id="Path_155862" data-name="Path 155862" d="M82.526,91.834a2.549,2.549,0,1,1-3.6-.121,2.549,2.549,0,0,1,3.6.121" transform="translate(67.443 78.591)" fill="#e26826"/>
      <path id="Path_155863" data-name="Path 155863" d="M95.292,78.936a2.548,2.548,0,1,1-3.6.011,2.542,2.542,0,0,1,3.6-.011" transform="translate(78.523 67.512)" fill="#e26826"/>
      <path id="Path_155864" data-name="Path 155864" d="M5.413,104.569a2.533,2.533,0,1,1-3.548,3.617,2.533,2.533,0,0,1,3.548-3.617" transform="translate(0.979 89.682)" fill="#e26826"/>
      <path id="Path_155865" data-name="Path 155865" d="M53.206,104.595a2.534,2.534,0,1,1,0,3.6,2.553,2.553,0,0,1,0-3.6" transform="translate(45.296 89.682)" fill="#e26826"/>
      <path id="Path_155866" data-name="Path 155866" d="M104.544,66.2a2.365,2.365,0,1,1,.032,3.306,2.318,2.318,0,0,1-.032-3.306" transform="translate(89.679 56.51)" fill="#e26826"/>
      <path id="Path_155867" data-name="Path 155867" d="M69.311,104.683a2.266,2.266,0,1,1-3.222-.015,2.306,2.306,0,0,1,3.222.015" transform="translate(56.503 89.81)" fill="#e26826"/>
      <path id="Path_155868" data-name="Path 155868" d="M120.582,30.847a2.234,2.234,0,1,1,.03-3.14,2.259,2.259,0,0,1-.03,3.14" transform="translate(100.834 23.346)" fill="#e26826"/>
      <path id="Path_155869" data-name="Path 155869" d="M117.429,18.008a2.234,2.234,0,1,1,3.14.019,2.257,2.257,0,0,1-3.14-.019" transform="translate(100.834 12.267)" fill="#e26826"/>
      <path id="Path_155870" data-name="Path 155870" d="M117.458,40.487a2.234,2.234,0,1,1-.076,3.14,2.26,2.26,0,0,1,.076-3.14" transform="translate(100.833 34.425)" fill="#e26826"/>
      <path id="Path_155871" data-name="Path 155871" d="M43.43,120.458a2.079,2.079,0,1,1-.065-2.957,2.134,2.134,0,0,1,.065,2.957" transform="translate(34.434 100.979)" fill="#e26826"/>
      <path id="Path_155872" data-name="Path 155872" d="M30.608,120.448a2.078,2.078,0,1,1-.084-2.957,2.132,2.132,0,0,1,.084,2.957" transform="translate(23.355 100.979)" fill="#e26826"/>
      <path id="Path_155873" data-name="Path 155873" d="M120.384,53.363a2.079,2.079,0,1,1-2.957.054,2.132,2.132,0,0,1,2.957-.054" transform="translate(100.911 45.582)" fill="#e26826"/>
      <path id="Path_155874" data-name="Path 155874" d="M94.765,91.905a2.079,2.079,0,1,1-2.957-.039,2.134,2.134,0,0,1,2.957.039" transform="translate(78.752 78.82)" fill="#e26826"/>
      <path id="Path_155875" data-name="Path 155875" d="M104.593,81.948A2.079,2.079,0,1,1,107.55,82a2.134,2.134,0,0,1-2.957-.054" transform="translate(89.831 67.742)" fill="#e26826"/>
      <path id="Path_155876" data-name="Path 155876" d="M17.522,120.27a1.89,1.89,0,1,1,.03-2.654,1.916,1.916,0,0,1-.03,2.654" transform="translate(12.358 101.062)" fill="#e26826"/>
      <path id="Path_155877" data-name="Path 155877" d="M53.383,117.561a1.89,1.89,0,1,1-.084,2.654,1.916,1.916,0,0,1,.084-2.654" transform="translate(45.595 101.062)" fill="#e26826"/>
      <path id="Path_155878" data-name="Path 155878" d="M78.987,104.789a1.89,1.89,0,1,1,.041,2.654,1.922,1.922,0,0,1-.041-2.654" transform="translate(67.755 89.982)" fill="#e26826"/>
      <path id="Path_155879" data-name="Path 155879" d="M117.49,2.122a1.911,1.911,0,1,1,.006,2.665,1.919,1.919,0,0,1-.006-2.665" transform="translate(100.98 1.332)" fill="#e26826"/>
      <path id="Path_155880" data-name="Path 155880" d="M4.465,117.65a1.686,1.686,0,1,1-2.432,2.337,1.686,1.686,0,0,1,2.432-2.337" transform="translate(1.37 101.154)" fill="#e26826"/>
      <path id="Path_155881" data-name="Path 155881" d="M119.957,68.691a1.686,1.686,0,1,1,0-2.365,1.7,1.7,0,0,1,0,2.365" transform="translate(101.084 56.836)" fill="#e26826"/>
      <path id="Path_155882" data-name="Path 155882" d="M15.321,7.684l5.068-5.068c.436,2.081-1.906,5.173-5.068,5.068" transform="translate(13.228 2.259)" fill="#e26826"/>
      <path id="Path_155883" data-name="Path 155883" d="M2.488,20.473l5.005-5.005c.607,2.3-2.011,5.014-5.005,5.005" transform="translate(2.148 13.355)" fill="#e26826"/>
      <path id="Path_155884" data-name="Path 155884" d="M130.486,27.833a1.5,1.5,0,0,1,2.087.089A1.47,1.47,0,0,1,132.44,30a1.413,1.413,0,0,1-2-.088,1.469,1.469,0,0,1,.047-2.081" transform="translate(112.268 23.705)" fill="#e26826"/>
      <path id="Path_155885" data-name="Path 155885" d="M66.309,117.674a1.5,1.5,0,0,1,2.087.058,1.472,1.472,0,0,1-.1,2.081,1.413,1.413,0,0,1-2-.058,1.467,1.467,0,0,1,.015-2.081" transform="translate(56.871 101.261)" fill="#e26826"/>
      <path id="Path_155886" data-name="Path 155886" d="M132.539,15.051a1.5,1.5,0,0,1-.041,2.087,1.47,1.47,0,0,1-2.081-.084,1.412,1.412,0,0,1,.041-2,1.467,1.467,0,0,1,2.081,0" transform="translate(112.261 12.622)" fill="#e26826"/>
      <path id="Path_155887" data-name="Path 155887" d="M132.462,42.839a1.507,1.507,0,0,1-2.087-.136,1.472,1.472,0,0,1,.179-2.076,1.415,1.415,0,0,1,2,.13,1.474,1.474,0,0,1-.091,2.081" transform="translate(112.269 34.774)" fill="#e26826"/>
      <path id="Path_155888" data-name="Path 155888" d="M106.864,92.035a1.5,1.5,0,0,1-.02,2.087,1.468,1.468,0,0,1-2.081-.063,1.412,1.412,0,0,1,.02-2,1.466,1.466,0,0,1,2.081-.022" transform="translate(90.102 79.099)" fill="#e26826"/>
      <path id="Path_155889" data-name="Path 155889" d="M91.973,104.842a1.5,1.5,0,0,1,2.087.058,1.472,1.472,0,0,1-.1,2.081,1.413,1.413,0,0,1-2-.058,1.467,1.467,0,0,1,.015-2.081" transform="translate(79.03 90.182)" fill="#e26826"/>
      <path id="Path_155890" data-name="Path 155890" d="M29.525,132.494c-.552-.1-1.224-.039-1.623-.341a.973.973,0,0,1,.041-1.621,1.645,1.645,0,0,1,1.55.015c.335.3.272,1.042.382,1.591l-.35.356" transform="translate(23.733 112.542)" fill="#e26826"/>
      <path id="Path_155891" data-name="Path 155891" d="M16.9,130.6c-.084.553,0,1.224-.293,1.634a.973.973,0,0,1-1.621.007,1.647,1.647,0,0,1-.035-1.55c.293-.343,1.036-.3,1.582-.429.121.114.244.225.367.337" transform="translate(12.757 112.469)" fill="#e26826"/>
      <path id="Path_155892" data-name="Path 155892" d="M42.593,130.628c-.1.55-.047,1.224-.348,1.621a.973.973,0,0,1-1.621-.048,1.644,1.644,0,0,1,.022-1.55c.3-.334,1.044-.266,1.593-.375.117.117.235.235.354.352" transform="translate(34.917 112.481)" fill="#e26826"/>
      <path id="Path_155893" data-name="Path 155893" d="M55.455,130.66c-.125.546-.091,1.224-.412,1.608a.973.973,0,0,1-1.617-.117,1.644,1.644,0,0,1,.086-1.548c.315-.319,1.053-.224,1.606-.309.112.123.225.244.337.367" transform="translate(45.997 112.496)" fill="#e26826"/>
      <path id="Path_155894" data-name="Path 155894" d="M132.4,53.616c-.091.553-.017,1.224-.311,1.63a.971.971,0,0,1-1.619-.011,1.639,1.639,0,0,1-.019-1.55c.3-.339,1.038-.291,1.586-.412.121.116.242.229.363.343" transform="translate(112.473 45.996)" fill="#e26826"/>
      <path id="Path_155895" data-name="Path 155895" d="M119.342,81.171c-.55-.1-1.224-.048-1.621-.352a.974.974,0,0,1,.054-1.621,1.643,1.643,0,0,1,1.55.026c.332.3.265,1.045.371,1.6-.119.117-.237.235-.354.352" transform="translate(101.289 68.224)" fill="#e26826"/>
      <path id="Path_155896" data-name="Path 155896" d="M81.116,117.826c-.123.546-.088,1.224-.406,1.608a.973.973,0,0,1-1.617-.11,1.644,1.644,0,0,1,.08-1.548c.313-.322,1.051-.229,1.6-.317l.339.367" transform="translate(68.156 101.415)" fill="#e26826"/>
      <path id="Path_155897" data-name="Path 155897" d="M130.557,66.114c.55.108,1.224.058,1.617.365a.973.973,0,0,1-.065,1.619,1.648,1.648,0,0,1-1.55-.037c-.33-.306-.255-1.045-.358-1.6.119-.116.237-.233.356-.35" transform="translate(112.417 57.083)" fill="#e26826"/>
      <path id="Path_155898" data-name="Path 155898" d="M104.551,106.636c.084-.553,0-1.224.289-1.634a.972.972,0,0,1,1.621-.011,1.643,1.643,0,0,1,.039,1.55c-.291.343-1.034.3-1.582.43-.121-.112-.244-.224-.367-.335" transform="translate(90.27 90.278)" fill="#e26826"/>
      <path id="Path_155899" data-name="Path 155899" d="M143.177,40.609c.689.129,1.209.08,1.435.313.19.2.041.723.041,1.1-.4,0-.9.14-1.185-.043-.216-.14-.166-.691-.291-1.375" transform="translate(123.62 35.062)" fill="#e26826"/>
      <path id="Path_155900" data-name="Path 155900" d="M42.14,144.911c-.682-.158-1.2-.13-1.42-.375-.181-.205-.134-.956.041-1.053a1.281,1.281,0,0,1,1.155.045c.209.151.132.7.224,1.383" transform="translate(35.059 123.785)" fill="#e26826"/>
      <path id="Path_155901" data-name="Path 155901" d="M144.826,29.394c-.688-.138-1.208-.093-1.431-.33-.186-.2-.166-.952,0-1.053a1.292,1.292,0,0,1,1.155.006c.214.142.157.7.272,1.377" transform="translate(123.695 24.07)" fill="#e26826"/>
      <path id="Path_155902" data-name="Path 155902" d="M53.362,144.9c.129-.689.08-1.209.313-1.435.2-.19.725-.041,1.1-.041,0,.4.142.9-.043,1.185-.142.216-.7.166-1.375.291" transform="translate(46.073 123.784)" fill="#e26826"/>
      <path id="Path_155903" data-name="Path 155903" d="M66.226,130.4c.676.19,1.2.186,1.4.438.173.214.093.963-.086,1.053a1.291,1.291,0,0,1-1.153-.1c-.2-.157-.1-.7-.164-1.39" transform="translate(57.18 112.586)" fill="#e26826"/>
      <path id="Path_155904" data-name="Path 155904" d="M143.18,53.44c.689.132,1.208.086,1.433.321.19.2.175.948.006,1.053a1.287,1.287,0,0,1-1.155,0c-.214-.14-.16-.691-.283-1.375" transform="translate(123.623 46.141)" fill="#e26826"/>
      <path id="Path_155905" data-name="Path 155905" d="M27.7,143.259c.686.142,1.207.1,1.427.341a1.088,1.088,0,0,1-.011,1.053,1.292,1.292,0,0,1-1.155-.015c-.212-.143-.149-.7-.261-1.379" transform="translate(23.914 123.691)" fill="#e26826"/>
      <path id="Path_155906" data-name="Path 155906" d="M67.8,144.911c-.682-.158-1.2-.13-1.42-.375-.181-.205-.134-.956.041-1.053a1.281,1.281,0,0,1,1.155.045c.209.151.132.7.224,1.383" transform="translate(57.217 123.785)" fill="#e26826"/>
      <path id="Path_155907" data-name="Path 155907" d="M80.682,130.454c-.168.68-.147,1.2-.4,1.414-.207.179-.958.121-1.053-.058a1.287,1.287,0,0,1,.063-1.155c.151-.2.7-.119,1.385-.2" transform="translate(68.318 112.635)" fill="#e26826"/>
      <path id="Path_155908" data-name="Path 155908" d="M93.445,117.589c-.125.691-.073,1.209-.3,1.437-.2.192-.723.047-1.1.05,0-.406-.147-.9.035-1.187.14-.218.693-.17,1.373-.3" transform="translate(79.416 101.527)" fill="#e26826"/>
      <path id="Path_155909" data-name="Path 155909" d="M117.548,91.908c.678.177,1.2.164,1.411.414.175.209.108.96-.071,1.053a1.284,1.284,0,0,1-1.153-.078c-.2-.155-.114-.7-.186-1.388" transform="translate(101.492 79.354)" fill="#e26826"/>
      <path id="Path_155910" data-name="Path 155910" d="M131.98,80.737c-.686-.147-1.206-.112-1.426-.352-.184-.2-.151-.954.022-1.055a1.292,1.292,0,0,1,1.155.028c.211.143.143.7.248,1.379" transform="translate(112.615 68.388)" fill="#e26826"/>
      <path id="Path_155911" data-name="Path 155911" d="M144.819,66.277c-.147.686-.112,1.206-.352,1.425-.2.184-.954.151-1.055-.022a1.292,1.292,0,0,1,.028-1.155c.144-.211.7-.143,1.379-.248" transform="translate(123.717 57.224)" fill="#e26826"/>
      <path id="Path_155912" data-name="Path 155912" d="M93.5,132.053c-.688-.138-1.208-.1-1.431-.33-.186-.2-.166-.952,0-1.055a1.292,1.292,0,0,1,1.155.007c.214.142.157.7.272,1.377" transform="translate(79.377 112.706)" fill="#e26826"/>
      <path id="Path_155913" data-name="Path 155913" d="M106.265,117.581c-.114.693-.052,1.211-.281,1.442-.194.2-.723.06-1.1.071-.011-.4-.162-.9.015-1.187.132-.22.688-.183,1.37-.326" transform="translate(90.494 101.52)" fill="#e26826"/>
      <path id="Path_155914" data-name="Path 155914" d="M119.179,104.789c-.168.68-.147,1.2-.4,1.414-.207.179-.956.121-1.053-.058a1.287,1.287,0,0,1,.063-1.155c.151-.2.7-.119,1.385-.2" transform="translate(101.557 90.476)" fill="#e26826"/>
      <path id="Path_155915" data-name="Path 155915" d="M130.355,93.569c.129-.689.08-1.209.313-1.435.2-.19.723-.041,1.1-.041,0,.4.142.9-.039,1.185-.142.216-.7.166-1.377.291" transform="translate(112.55 79.466)" fill="#e26826"/>
    </g>
  </g>
</svg>
