<svg xmlns="http://www.w3.org/2000/svg" width="11.431" height="11.431" viewBox="0 0 11.431 11.431">
  <g id="cross_icon" transform="translate(-7.293 -6.293)">
    <g id="Group_57330" data-name="Group 57330" transform="translate(8 7)">
      <g id="close_FILL0_wght400_GRAD0_opsz48_1_" data-name="close_FILL0_wght400_GRAD0_opsz48 (1)" transform="translate(-10.35 -10.35)" fill="#d52929">
        <path d="M 19.59589195251465 20.71989440917969 L 19.41911315917969 20.54312515258789 L 15.35819244384766 16.48222351074219 L 11.29727268218994 20.54312515258789 L 11.12049198150635 20.71989440917969 L 10.94371223449707 20.54312515258789 L 10.17322254180908 19.77264404296875 L 9.996452331542969 19.59586524963379 L 10.17322254180908 19.4190845489502 L 14.2341423034668 15.35817432403564 L 10.17322254180908 11.29726409912109 L 9.996452331542969 11.12048435211182 L 10.17322254180908 10.94370460510254 L 10.94371223449707 10.17322444915771 L 11.12049198150635 9.996454238891602 L 11.29727268218994 10.17322444915771 L 15.35819244384766 14.2341251373291 L 19.41911315917969 10.17322444915771 L 19.59589195251465 9.996454238891602 L 19.77267265319824 10.17322444915771 L 20.54316329956055 10.94370460510254 L 20.71993255615234 11.12048435211182 L 20.54316329956055 11.29726409912109 L 16.48224258422852 15.35817432403564 L 20.54316329956055 19.4190845489502 L 20.71993255615234 19.59586524963379 L 20.54316329956055 19.77264404296875 L 19.77267265319824 20.54312515258789 L 19.59589195251465 20.71989440917969 Z" stroke="none"/>
        <path d="M 19.59589195251465 20.3663444519043 L 20.36638259887695 19.59586524963379 L 16.12868309020996 15.35817432403564 L 20.36638259887695 11.12048435211182 L 19.59589195251465 10.35000419616699 L 15.35819244384766 14.58768463134766 L 11.12049198150635 10.35000419616699 L 10.35000228881836 11.12048435211182 L 14.58770275115967 15.35817432403564 L 10.35000228881836 19.59586524963379 L 11.12049198150635 20.3663444519043 L 15.35819244384766 16.12866401672363 L 19.59589195251465 20.3663444519043 M 19.59589195251465 21.07344436645508 L 15.35819244384766 16.83576202392578 L 11.12049198150635 21.07344436645508 L 9.642892837524414 19.59586524963379 L 13.88060188293457 15.35817432403564 L 9.642892837524414 11.12048435211182 L 11.12049198150635 9.642904281616211 L 15.35819244384766 13.88058567047119 L 19.59589195251465 9.642904281616211 L 21.0734920501709 11.12048435211182 L 16.83578300476074 15.35817432403564 L 21.0734920501709 19.59586524963379 L 19.59589195251465 21.07344436645508 Z" stroke="none" fill="#d52929"/>
      </g>
    </g>
  </g>
</svg>
