<svg id="Group_57994" data-name="Group 57994" xmlns="http://www.w3.org/2000/svg" xmlns:xlink="http://www.w3.org/1999/xlink" width="43.892" height="44.521" viewBox="0 0 43.892 44.521">
  <defs>
    <clipPath id="clip-path">
      <path id="Path_8" data-name="Path 8" d="M42.732,0c-2.071,5.16-17.45,8.082-27.3,10.56-6.416,1.615-13.87,4.858-9.962,15.957C9.078,36.766,0,44.521,0,44.521a27.692,27.692,0,0,0,13.64-5.367c-5.056-3.151-2.418-14.4.5-18.277,3.935-5.235,7.871-6.033,18.431-10.217S42.732,0,42.732,0Z" fill="none"/>
    </clipPath>
    <linearGradient id="linear-gradient" y1="1" x2="0.017" y2="1" gradientUnits="objectBoundingBox">
      <stop offset="0" stop-color="#ddc18e"/>
      <stop offset="1" stop-color="#b1915d"/>
    </linearGradient>
    <clipPath id="clip-path-2">
      <path id="Path_9" data-name="Path 9" d="M37.6,13.389c-1.7.674-3.249,1.268-4.615,1.791-7.106,2.723-10.046,3.851-13.039,7.833a17.9,17.9,0,0,0-2.538,6.35c1.868-3.329,7.809-4.58,16.688-6.7C46.838,19.63,48.253,4.2,48.253,4.2c-1.038,2.673-3.727,6.448-10.658,9.194" transform="translate(-17.404 -4.195)" fill="none"/>
    </clipPath>
    <linearGradient id="linear-gradient-2" x1="-0.423" y1="1.644" x2="-0.398" y2="1.644" xlink:href="#linear-gradient"/>
    <clipPath id="clip-path-3">
      <path id="Path_10" data-name="Path 10" d="M34.368,30.028l-1.359.323c-5.193,1.232-15.907,3.273-16.172,9.427h0c2.377-.565,6.23-.8,10.89-1.916,8.117-1.938,12.221-8.32,13.73-11.29a17.851,17.851,0,0,1-7.09,3.455" transform="translate(-16.838 -26.573)" fill="none"/>
    </clipPath>
    <linearGradient id="linear-gradient-3" x1="-0.513" y1="1.863" x2="-0.482" y2="1.863" xlink:href="#linear-gradient"/>
    <clipPath id="clip-path-4">
      <path id="Path_11" data-name="Path 11" d="M28.235,42.974c-2.8.67-5.339,1.034-7.374,1.326-1.462.21-2.745.394-3.669.628,1.667,5.821,14.006,1.467,17.9-4.962a20.933,20.933,0,0,1-6.854,3.007" transform="translate(-17.192 -39.967)" fill="none"/>
    </clipPath>
    <linearGradient id="linear-gradient-4" x1="-0.72" y1="1.345" x2="-0.678" y2="1.345" xlink:href="#linear-gradient"/>
  </defs>
  <g id="Group_22" data-name="Group 22">
    <g id="Group_21" data-name="Group 21" clip-path="url(#clip-path)">
      <rect id="Rectangle_16" data-name="Rectangle 16" width="43.13" height="44.521" transform="translate(0 0)" fill="url(#linear-gradient)"/>
    </g>
  </g>
  <g id="Group_24" data-name="Group 24" transform="translate(13.042 3.144)">
    <g id="Group_23" data-name="Group 23" clip-path="url(#clip-path-2)">
      <rect id="Rectangle_17" data-name="Rectangle 17" width="30.849" height="25.167" transform="translate(0 0)" fill="url(#linear-gradient-2)"/>
    </g>
  </g>
  <g id="Group_26" data-name="Group 26" transform="translate(12.618 19.914)">
    <g id="Group_25" data-name="Group 25" clip-path="url(#clip-path-3)">
      <rect id="Rectangle_18" data-name="Rectangle 18" width="24.62" height="13.206" transform="translate(0 0)" fill="url(#linear-gradient-3)"/>
    </g>
  </g>
  <g id="Group_28" data-name="Group 28" transform="translate(12.883 29.951)">
    <g id="Group_27" data-name="Group 27" clip-path="url(#clip-path-4)">
      <rect id="Rectangle_19" data-name="Rectangle 19" width="17.897" height="10.783" transform="translate(0 0)" fill="url(#linear-gradient-4)"/>
    </g>
  </g>
</svg>
