<svg width="10" height="10" viewBox="0 0 10 10" fill="none" xmlns="http://www.w3.org/2000/svg">
<path d="M5 1C3.93913 1 2.92172 1.42143 2.17157 2.17157C1.42143 2.92172 1 3.93913 1 5C1 6.06087 1.42143 7.07828 2.17157 7.82843C2.92172 8.57857 3.93913 9 5 9C6.06087 9 7.07828 8.57857 7.82843 7.82843C8.57857 7.07828 9 6.06087 9 5C9 3.93913 8.57857 2.92172 7.82843 2.17157C7.07828 1.42143 6.06087 1 5 1ZM0 5C0 2.2385 2.2385 0 5 0C7.7615 0 10 2.2385 10 5C10 7.7615 7.7615 10 5 10C2.2385 10 0 7.7615 0 5ZM2.8965 2.8965C2.99026 2.80276 3.11742 2.75011 3.25 2.75011C3.38258 2.75011 3.50974 2.80276 3.6035 2.8965L5 4.293L6.3965 2.8965C6.44262 2.84875 6.4978 2.81065 6.5588 2.78445C6.6198 2.75824 6.68541 2.74445 6.7518 2.74387C6.81819 2.7433 6.88403 2.75595 6.94548 2.78109C7.00693 2.80623 7.06275 2.84336 7.1097 2.8903C7.15664 2.93725 7.19377 2.99307 7.21891 3.05452C7.24405 3.11597 7.2567 3.18181 7.25613 3.2482C7.25555 3.31459 7.24176 3.3802 7.21555 3.4412C7.18935 3.5022 7.15126 3.55738 7.1035 3.6035L5.707 5L7.1035 6.3965C7.19458 6.4908 7.24498 6.6171 7.24384 6.7482C7.2427 6.8793 7.19011 7.00471 7.09741 7.09741C7.00471 7.19011 6.8793 7.2427 6.7482 7.24384C6.6171 7.24498 6.4908 7.19458 6.3965 7.1035L5 5.707L3.6035 7.1035C3.5092 7.19458 3.3829 7.24498 3.2518 7.24384C3.1207 7.2427 2.99529 7.19011 2.90259 7.09741C2.80989 7.00471 2.7573 6.8793 2.75616 6.7482C2.75502 6.6171 2.80542 6.4908 2.8965 6.3965L4.293 5L2.8965 3.6035C2.80276 3.50974 2.75011 3.38258 2.75011 3.25C2.75011 3.11742 2.80276 2.99026 2.8965 2.8965Z" fill="#FE6B6B"/>
</svg>
