<svg
    xmlns="http://www.w3.org/2000/svg"
    width="16"
    height="16"
    viewBox="0 0 18.5 18.5"
    className="mx-1"
>
    <g
        id="info_FILL0_wght400_GRAD0_opsz48"
        transform="translate(0.25 0.25)"
    >
        <path
            id="info_FILL0_wght400_GRAD0_opsz48-2"
            data-name="info_FILL0_wght400_GRAD0_opsz48"
            d="M88.393-866.5h1.35v-5.4h-1.35ZM89-873.565a.731.731,0,0,0,.529-.207.685.685,0,0,0,.214-.513.752.752,0,0,0-.213-.545.707.707,0,0,0-.529-.22.708.708,0,0,0-.529.22.751.751,0,0,0-.214.545.686.686,0,0,0,.213.513A.729.729,0,0,0,89-873.565ZM89.006-862a8.712,8.712,0,0,1-3.5-.709,9.145,9.145,0,0,1-2.863-1.935,9.14,9.14,0,0,1-1.935-2.865,8.728,8.728,0,0,1-.709-3.5,8.728,8.728,0,0,1,.709-3.5,9,9,0,0,1,1.935-2.854,9.237,9.237,0,0,1,2.865-1.924,8.728,8.728,0,0,1,3.5-.709,8.728,8.728,0,0,1,3.5.709,9.1,9.1,0,0,1,2.854,1.924,9.089,9.089,0,0,1,1.924,2.858,8.749,8.749,0,0,1,.709,3.5,8.712,8.712,0,0,1-.709,3.5,9.192,9.192,0,0,1-1.924,2.859,9.087,9.087,0,0,1-2.857,1.935A8.707,8.707,0,0,1,89.006-862Zm.005-1.35a7.348,7.348,0,0,0,5.411-2.239,7.4,7.4,0,0,0,2.228-5.422,7.374,7.374,0,0,0-2.223-5.411A7.376,7.376,0,0,0,89-878.65a7.4,7.4,0,0,0-5.411,2.223A7.357,7.357,0,0,0,81.35-871a7.372,7.372,0,0,0,2.239,5.411A7.385,7.385,0,0,0,89.011-863.35ZM89-871Z"
            transform="translate(-80 880)"
            fill="#333"
            stroke="#333"
            stroke-width="0.5"
        />
    </g>
</svg>