<svg width="19" height="24" viewBox="0 0 19 24" fill="none" xmlns="http://www.w3.org/2000/svg" style="position: relative; left: 4px; bottom: 2px">
<path d="M9.14286 24L0.914286 17.8286C0.628571 17.619 0.404762 17.3524 0.242857 17.0286C0.0809524 16.7048 0 16.3619 0 16V2.28571C0 1.65714 0.22381 1.11905 0.671429 0.671429C1.11905 0.22381 1.65714 0 2.28571 0H16C16.6286 0 17.1667 0.22381 17.6143 0.671429C18.0619 1.11905 18.2857 1.65714 18.2857 2.28571V16C18.2857 16.3619 18.2048 16.7048 18.0429 17.0286C17.881 17.3524 17.6571 17.619 17.3714 17.8286L9.14286 24ZM7.94286 14.8571L14.4 8.4L12.8 6.74286L7.94286 11.6L5.54286 9.2L3.88571 10.8L7.94286 14.8571Z" fill="url(#paint0_linear_653_1946)"/>
<defs>
<linearGradient id="paint0_linear_653_1946" x1="9.14286" y1="0" x2="9.14286" y2="24" gradientUnits="userSpaceOnUse">
<stop stop-color="#FBAF4D"/>
<stop offset="1" stop-color="#EF7330"/>
</linearGradient>
</defs>
</svg>
