<svg width="24" height="25" viewBox="0 0 24 25" fill="none" xmlns="http://www.w3.org/2000/svg">
<path d="M16 10.5H18" stroke="#667085" stroke-linecap="round" stroke-linejoin="round"/>
<path d="M16 14.5H18" stroke="#667085" stroke-linecap="round" stroke-linejoin="round"/>
<path d="M6.17004 15.4999C6.37618 14.914 6.75915 14.4064 7.26606 14.0474C7.77298 13.6883 8.37885 13.4955 9.00004 13.4955C9.62123 13.4955 10.2271 13.6883 10.734 14.0474C11.2409 14.4064 11.6239 14.914 11.83 15.4999" stroke="#667085" stroke-linecap="round" stroke-linejoin="round"/>
<path d="M9 13.5C10.1046 13.5 11 12.6046 11 11.5C11 10.3954 10.1046 9.5 9 9.5C7.89543 9.5 7 10.3954 7 11.5C7 12.6046 7.89543 13.5 9 13.5Z" stroke="#667085" stroke-linecap="round" stroke-linejoin="round"/>
<path d="M20 5.5H4C2.89543 5.5 2 6.39543 2 7.5V17.5C2 18.6046 2.89543 19.5 4 19.5H20C21.1046 19.5 22 18.6046 22 17.5V7.5C22 6.39543 21.1046 5.5 20 5.5Z" stroke="#667085" stroke-linecap="round" stroke-linejoin="round"/>
</svg>
