<svg xmlns="http://www.w3.org/2000/svg" width="22.634" height="20.602" viewBox="0 0 22.634 20.602">
  <path id="visibility_off_FILL0_wght400_GRAD0_opsz48" d="M55.15-853.529l-1.132-1.132a2.552,2.552,0,0,0-.694-3.035,2.748,2.748,0,0,0-2.958-.617l-1.132-1.132a3.109,3.109,0,0,1,.977-.412,4.758,4.758,0,0,1,1.106-.129,4.218,4.218,0,0,1,3.1,1.273,4.218,4.218,0,0,1,1.273,3.1,4.5,4.5,0,0,1-.141,1.119A3.4,3.4,0,0,1,55.15-853.529Zm3.318,3.318-1.029-1.029a12.058,12.058,0,0,0,2.2-2.07,8.264,8.264,0,0,0,1.376-2.3,10.267,10.267,0,0,0-3.858-4.514,10.1,10.1,0,0,0-5.581-1.659,12.367,12.367,0,0,0-2.212.206,8.219,8.219,0,0,0-1.775.489L46.4-862.3a11.666,11.666,0,0,1,2.3-.72,12.727,12.727,0,0,1,2.739-.309,11.611,11.611,0,0,1,6.726,2.1,12.154,12.154,0,0,1,4.463,5.62,12.707,12.707,0,0,1-1.723,3.009A12.422,12.422,0,0,1,58.467-850.211Zm1.492,5.813-4.321-4.244a9.993,9.993,0,0,1-2.032.553,13.6,13.6,0,0,1-2.289.193,11.793,11.793,0,0,1-6.816-2.1,12.286,12.286,0,0,1-4.5-5.62,11.673,11.673,0,0,1,1.428-2.611,14.62,14.62,0,0,1,2.225-2.43l-3.241-3.241L41.492-865l19.471,19.471ZM44.707-859.573a9.469,9.469,0,0,0-1.839,1.826,8.465,8.465,0,0,0-1.273,2.135,10.3,10.3,0,0,0,3.948,4.514,10.991,10.991,0,0,0,5.98,1.659,13.487,13.487,0,0,0,1.672-.1,4,4,0,0,0,1.235-.309L52.783-851.5a2.693,2.693,0,0,1-.694.193,5.015,5.015,0,0,1-.772.064,4.253,4.253,0,0,1-3.086-1.26,4.185,4.185,0,0,1-1.286-3.112,4.686,4.686,0,0,1,.064-.772,3.15,3.15,0,0,1,.193-.694ZM52.552-855.921ZM49.568-854.429Z" transform="translate(-40 865)"/>
</svg>
