<svg width="20" height="14" viewBox="0 0 20 14" fill="none" xmlns="http://www.w3.org/2000/svg">
<path d="M13 7C13 7.79565 12.6839 8.55871 12.1213 9.12132C11.5587 9.68393 10.7956 10 10 10C9.20435 10 8.44129 9.68393 7.87868 9.12132C7.31607 8.55871 7 7.79565 7 7C7 6.20435 7.31607 5.44129 7.87868 4.87868C8.44129 4.31607 9.20435 4 10 4C10.7956 4 11.5587 4.31607 12.1213 4.87868C12.6839 5.44129 13 6.20435 13 7Z" fill="#A0A8AC"/>
<path d="M19.894 6.553C17.736 2.236 13.904 0 9.99995 0C6.09595 0 2.26395 2.236 0.105954 6.553C0.0365957 6.6918 0.000488281 6.84484 0.000488281 7C0.000488281 7.15516 0.0365957 7.3082 0.105954 7.447C2.26395 11.764 6.09595 14 9.99995 14C13.904 14 17.736 11.764 19.894 7.447C19.9633 7.3082 19.9994 7.15516 19.9994 7C19.9994 6.84484 19.9633 6.6918 19.894 6.553ZM9.99995 12C7.03095 12 3.99795 10.38 2.12995 7C3.99795 3.62 7.02995 2 9.99995 2C12.97 2 16.002 3.62 17.87 7C16.002 10.38 12.969 12 9.99995 12Z" fill="#A0A8AC"/>
</svg>
