<svg xmlns="http://www.w3.org/2000/svg" width="22.634" height="15.433" viewBox="0 0 22.634 15.433">
  <path id="visibility_FILL0_wght400_GRAD0_opsz48" d="M51.32-787.911a4.21,4.21,0,0,0,3.1-1.276,4.225,4.225,0,0,0,1.273-3.1,4.21,4.21,0,0,0-1.276-3.1,4.225,4.225,0,0,0-3.1-1.273,4.21,4.21,0,0,0-3.1,1.276,4.225,4.225,0,0,0-1.273,3.1,4.21,4.21,0,0,0,1.276,3.1A4.225,4.225,0,0,0,51.32-787.911Zm-.009-1.492a2.764,2.764,0,0,1-2.039-.842,2.794,2.794,0,0,1-.836-2.045,2.764,2.764,0,0,1,.842-2.039,2.794,2.794,0,0,1,2.045-.836,2.764,2.764,0,0,1,2.039.842,2.794,2.794,0,0,1,.836,2.045,2.764,2.764,0,0,1-.842,2.039A2.794,2.794,0,0,1,51.311-789.4Zm.006,4.836a11.528,11.528,0,0,1-6.79-2.135A13,13,0,0,1,40-792.284a13.006,13.006,0,0,1,4.527-5.582A11.529,11.529,0,0,1,51.317-800a11.529,11.529,0,0,1,6.79,2.135,13.006,13.006,0,0,1,4.527,5.582,13,13,0,0,1-4.527,5.581A11.528,11.528,0,0,1,51.317-784.568ZM51.317-792.284Zm0,6.173A10.351,10.351,0,0,0,57.04-787.8a10.932,10.932,0,0,0,3.974-4.488,10.943,10.943,0,0,0-3.97-4.488,10.33,10.33,0,0,0-5.723-1.685,10.351,10.351,0,0,0-5.727,1.685,11.116,11.116,0,0,0-4,4.488,11.127,11.127,0,0,0,4,4.488A10.33,10.33,0,0,0,51.313-786.111Z" transform="translate(-40 800)"/>
</svg>
