<svg width="20" height="18" viewBox="0 0 20 18" fill="none" xmlns="http://www.w3.org/2000/svg">
<path d="M2.70695 0.292919C2.51835 0.110761 2.26575 0.00996641 2.00355 0.0122448C1.74136 0.0145233 1.49054 0.119692 1.30514 0.3051C1.11973 0.490508 1.01456 0.741321 1.01228 1.00352C1.01 1.26571 1.1108 1.51832 1.29295 1.70692L3.71695 4.13092C2.28695 5.20692 1.03895 6.68492 0.105954 8.55292C0.0365957 8.69172 0.000488281 8.84475 0.000488281 8.99992C0.000488281 9.15508 0.0365957 9.30812 0.105954 9.44692C2.26395 13.7639 6.09595 15.9999 9.99995 15.9999C11.555 15.9999 13.1 15.6449 14.53 14.9449L17.293 17.7069C17.4816 17.8891 17.7342 17.9899 17.9964 17.9876C18.2586 17.9853 18.5094 17.8801 18.6948 17.6947C18.8802 17.5093 18.9853 17.2585 18.9876 16.9963C18.9899 16.7341 18.8891 16.4815 18.707 16.2929L2.70695 0.292919ZM13.014 13.4279C12.034 13.8109 11.014 13.9999 9.99995 13.9999C7.03095 13.9999 3.99795 12.3799 2.12995 8.99992C2.94695 7.52092 3.98795 6.37992 5.14795 5.56292L7.29195 7.70692C7.02404 8.26687 6.93642 8.89614 7.04117 9.50799C7.14592 10.1198 7.43789 10.6841 7.87682 11.123C8.31576 11.562 8.88004 11.854 9.49189 11.9587C10.1037 12.0635 10.733 11.9758 11.293 11.7079L13.014 13.4279ZM16.552 10.8959C17.035 10.3399 17.478 9.70892 17.87 8.99992C16.002 5.61992 12.97 3.99992 9.99995 3.99992C9.88795 3.99992 9.77595 4.00225 9.66395 4.00692L7.87895 2.22292C8.57622 2.07467 9.2871 1.99993 9.99995 1.99992C13.903 1.99992 17.736 4.23592 19.894 8.55292C19.9633 8.69172 19.9994 8.84475 19.9994 8.99992C19.9994 9.15508 19.9633 9.30812 19.894 9.44692C19.3825 10.4832 18.7351 11.4467 17.969 12.3119L16.552 10.8959Z" fill="#A0A8AC"/>
</svg>
