<svg width="28" height="19" viewBox="0 0 28 19" fill="none" xmlns="http://www.w3.org/2000/svg">
<path d="M24 0H4C1.79086 0 0 1.79086 0 4V15C0 17.2091 1.79086 19 4 19H24C26.2091 19 28 17.2091 28 15V4C28 1.79086 26.2091 0 24 0Z" fill="white"/>
<path d="M24 0.5H4C2.067 0.5 0.5 2.067 0.5 4V15C0.5 16.933 2.067 18.5 4 18.5H24C25.933 18.5 27.5 16.933 27.5 15V4C27.5 2.067 25.933 0.5 24 0.5Z" stroke="#EB6F2D"/>
<path d="M6.19673 12.5455L6.31108 10.532L4.62074 11.6406L4.0142 10.5866L5.81889 9.68182L4.0142 8.77699L4.62074 7.72301L6.31108 8.83168L6.19673 6.81818H7.40483L7.29545 8.83168L8.9858 7.72301L9.59233 8.77699L7.78267 9.68182L9.59233 10.5866L8.9858 11.6406L7.29545 10.532L7.40483 12.5455H6.19673ZM13.7983 12.5455L13.9126 10.532L12.2223 11.6406L11.6158 10.5866L13.4205 9.68182L11.6158 8.77699L12.2223 7.72301L13.9126 8.83168L13.7983 6.81818H15.0064L14.897 8.83168L16.5874 7.72301L17.1939 8.77699L15.3842 9.68182L17.1939 10.5866L16.5874 11.6406L14.897 10.532L15.0064 12.5455H13.7983ZM21.3999 12.5455L21.5142 10.532L19.8239 11.6406L19.2173 10.5866L21.022 9.68182L19.2173 8.77699L19.8239 7.72301L21.5142 8.83168L21.3999 6.81818H22.608L22.4986 8.83168L24.1889 7.72301L24.7955 8.77699L22.9858 9.68182L24.7955 10.5866L24.1889 11.6406L22.4986 10.532L22.608 12.5455H21.3999Z" fill="#FB894C"/>
</svg>
