<svg width="8" height="12" viewBox="0 0 8 12" fill="none" xmlns="http://www.w3.org/2000/svg">
<path d="M3.99994 0.666626C4.17674 0.666664 4.34628 0.736927 4.47127 0.861959L7.13794 3.52863C7.25938 3.65436 7.32657 3.82276 7.32506 3.99756C7.32354 4.17236 7.25342 4.33957 7.12982 4.46317C7.00621 4.58678 6.839 4.65689 6.66421 4.65841C6.48941 4.65993 6.32101 4.59273 6.19527 4.47129L3.99994 2.27596L1.80461 4.47129C1.67887 4.59273 1.51047 4.65993 1.33567 4.65841C1.16087 4.65689 0.993665 4.58678 0.87006 4.46317C0.746455 4.33957 0.676342 4.17236 0.674823 3.99756C0.673304 3.82276 0.7405 3.65436 0.861939 3.52863L3.52861 0.861959C3.6536 0.736927 3.82314 0.666664 3.99994 0.666626ZM0.861939 7.52863C0.986958 7.40365 1.1565 7.33343 1.33327 7.33343C1.51005 7.33343 1.67959 7.40365 1.80461 7.52863L3.99994 9.72396L6.19527 7.52863C6.32101 7.40719 6.48941 7.33999 6.66421 7.34151C6.839 7.34303 7.00621 7.41314 7.12982 7.53675C7.25342 7.66035 7.32354 7.82756 7.32506 8.00236C7.32657 8.17716 7.25938 8.34556 7.13794 8.47129L4.47127 11.138C4.34625 11.2629 4.17672 11.3331 3.99994 11.3331C3.82316 11.3331 3.65362 11.2629 3.52861 11.138L0.861939 8.47129C0.736958 8.34627 0.666748 8.17673 0.666748 7.99996C0.666748 7.82318 0.736958 7.65364 0.861939 7.52863Z" fill="#323639"/>
</svg>
